<?xml version="1.0" encoding="UTF-8" standalone="no"?><!DOCTYPE svg PUBLIC "-//W3C//DTD SVG 1.1//EN" "http://www.w3.org/Graphics/SVG/1.1/DTD/svg11.dtd"
><svg
  width="100%"
  height="100%"
  viewBox="0 0 1563 860"
  version="1.1"
  xmlns="http://www.w3.org/2000/svg"
  xmlns:xlink="http://www.w3.org/1999/xlink"
  xml:space="preserve"
  xmlns:serif="http://www.serif.com/"
  style="fill-rule:evenodd;clip-rule:evenodd;stroke-linecap:round;stroke-linejoin:round;stroke-miterlimit:1.5;"
>
  <g>
    <path
      d="M362.123,608.922c12.775,12.52 25.16,25.547 38.393,37.589c3.21,2.92 6.468,5.797 9.774,8.608c0.696,0.592 2.649,2.743 3.658,2.729c0.885,-0.012 2.439,-6.256 2.629,-7.032c2.009,-8.208 1.796,-16.963 2.802,-25.328c4.187,-34.836 9.401,-69.67 15.904,-104.166"
      style="fill:none;stroke:#fff;stroke-width:3.97px;"
    />
    <path
      d="M376.741,809.961c6.625,-13.464 15.903,-25.437 23.171,-38.538c8.312,-14.982 15.642,-30.514 24.088,-45.407c14.283,-25.188 29.81,-49.759 44.761,-74.549"
      style="fill:none;stroke:#fff;stroke-width:3.97px;"
    />
    <path
      d="M328.45,765.883c1.542,2.219 3.927,7.487 6.247,8.892c0.1,0.06 1.569,-1.52 1.671,-1.623c1.774,-1.799 3.371,-3.763 4.786,-5.856c4.5,-6.657 7.862,-14.337 10.974,-21.728c0.626,-1.486 3.093,-6.149 2.633,-7.805c-0.257,-0.921 -3.082,-2.604 -3.835,-3.207c-1.631,-1.306 -3.127,-2.737 -4.609,-4.205c-0.296,-0.294 -0.42,0.722 -0.607,1.096c-0.402,0.804 -0.738,1.645 -1.097,2.469c-1.048,2.399 -2.079,4.803 -3.067,7.229c-1.393,3.42 -2.869,6.803 -4.487,10.124c-2.524,5.18 -6.014,9.677 -8.952,14.598"
      style="fill:none;stroke:#fff;stroke-width:3.97px;"
    />
    <path
      d="M484.813,766.448c2.582,1.914 5.386,3.782 8.565,4.498c1.541,0.347 3.119,0.52 4.663,0.858c0.375,0.083 1.406,0.136 1.681,0.43c0.125,0.134 -0.842,1.364 -0.956,1.51c-1.213,1.546 -3.259,2.253 -5.01,2.972c-3.711,1.524 -9.078,0.383 -11.757,-2.686c-2.848,-3.262 -1.086,-7.431 2.978,-8"
      style="fill:none;stroke:#fff;stroke-width:3.97px;"
    />
    <path
      d="M556.322,715.078c-4.565,-4.473 -10.9,-6.845 -17.036,-3.937c-2.778,1.317 -6.016,4.937 -5.072,8.286c1.098,3.898 5.698,4.606 8.81,2.785c3.741,-2.19 6.477,-6.933 6.952,-11.271"
      style="fill:none;stroke:#fff;stroke-width:3.97px;"
    />
    <path
      d="M560.336,839.595c1.724,-6.351 2.958,-12.793 4.602,-19.161c1.204,-4.668 2.83,-9.212 3.906,-13.923c2.825,-12.36 5.339,-24.95 9.267,-37.026"
      style="fill:none;stroke:#fff;stroke-width:3.97px;"
    />
    <path
      d="M707.567,820.061c3.978,-1.228 8.608,-3.357 12.843,-3.333c0.003,0 0.045,0.778 0.047,0.804c0.055,0.941 0.13,1.882 0.151,2.824c0.033,1.51 0.048,3.004 -0.055,4.512c-0.021,0.302 0.089,1.23 -0.085,1.456c-0.13,0.168 -1.131,0.174 -1.351,0.208c-1.432,0.22 -2.86,0.37 -4.276,0.685c-1.712,0.381 -3.463,0.795 -5.064,1.522c-0.465,0.212 -1.661,1.269 -2.097,1.259c-0.319,-0.008 -1.367,-1.416 -1.574,-1.638c-1.706,-1.832 -3.537,-3.688 -4.692,-5.93"
      style="fill:none;stroke:#fff;stroke-width:3.97px;"
    />
    <path
      d="M810.23,836.207c-2.006,-5.6 -3.317,-11.359 -5.073,-17.036c-5.184,-16.76 -10.049,-33.631 -16.578,-49.942"
      style="fill:none;stroke:#fff;stroke-width:3.97px;"
    />
    <path
      d="M892.734,745.66c0.541,3.154 0.787,6.266 1.008,9.451c0.066,0.942 -0.032,2.923 1.074,3.468c0.857,0.422 2.154,-0.025 3.078,-0.114c2.737,-0.263 5.327,-0.796 7.98,-1.509c1.212,-0.326 2.459,-0.586 3.701,-0.778c0.422,-0.065 0.845,-0.124 1.269,-0.183c0.239,-0.033 0.807,0.133 0.72,-0.093c-1.707,-4.422 -4.877,-8.306 -6.911,-12.606c-0.486,-1.027 -0.956,-2.065 -1.401,-3.111c-0.019,-0.045 -0.344,-0.962 -0.389,-0.959c-1.188,0.075 -2.792,1.454 -3.81,1.988c-2.427,1.273 -4.863,2.253 -7.491,3.018"
      style="fill:none;stroke:#fff;stroke-width:3.97px;"
    />
    <path
      d="M939.12,782.063c1.309,2.121 2.661,4.211 3.949,6.347c0.115,0.192 1.013,2.082 1.295,2.116c0.306,0.036 1.081,-0.886 1.303,-1.072c1.291,-1.084 2.587,-2.148 3.837,-3.28c1.999,-1.81 3.986,-3.583 5.651,-5.722c3.092,-3.974 5.17,-8.582 7.658,-12.929c1.841,-3.217 3.569,-6.505 5.273,-9.797c0.364,-0.705 0.734,-1.405 1.115,-2.101c0.04,-0.074 0.477,-0.711 0.437,-0.779c-0.501,-0.853 -3.008,-1.607 -3.84,-2.129c-1.13,-0.708 -2.197,-1.572 -3.108,-2.549c-0.294,-0.316 -0.574,-0.645 -0.832,-0.991c-0.056,-0.075 -0.409,-0.567 -0.41,-0.566c-0.639,0.378 -1.237,2.122 -1.583,2.749c-1.338,2.421 -2.55,4.915 -3.916,7.319c-1.845,3.249 -4.078,6.333 -6.212,9.395c-3.323,4.768 -7.308,8.997 -10.662,13.739"
      style="fill:none;stroke:#fff;stroke-width:3.97px;"
    />
    <path
      d="M1176.81,827.583c-14.764,-19.127 -29.256,-38.666 -44.366,-57.518"
      style="fill:none;stroke:#fff;stroke-width:3.97px;"
    />
    <path
      d="M1006.71,593.987c2.668,3.71 5.548,7.26 8.405,10.825c0.628,0.785 1.256,1.57 1.895,2.346c0.336,0.409 0.596,1.57 1.002,1.231c4.917,-4.11 8.023,-11.204 12.635,-15.868c0.433,-0.439 4.603,-3.9 4.491,-4.277c-0.469,-1.575 -4.391,-3.979 -5.634,-5.094c-1.958,-1.757 -3.753,-3.678 -5.646,-5.503c-0.159,-0.154 -1.589,-1.9 -1.826,-1.865c-1.373,0.203 -3.716,3.222 -4.707,4.233c-4.376,4.465 -7.82,9.161 -10.409,14.845"
      style="fill:none;stroke:#fff;stroke-width:3.97px;"
    />
    <path
      d="M936.919,558.473c12.342,1.39 24.685,2.485 36.997,4.229c3.403,0.482 6.819,0.868 10.223,1.342c0.604,0.084 2.92,0.775 3.414,0.419c3.066,-2.206 1.766,-5.388 0.73,-8.373c-2.246,-6.469 -5.492,-12.56 -8.175,-18.846c-7.689,-18.021 -15.089,-36.307 -22.126,-54.592c-4.146,-10.773 -7.512,-22.418 -12.602,-32.781"
      style="fill:none;stroke:#fff;stroke-width:3.97px;"
    />
    <path
      d="M1023.15,526.091c5.648,-4.161 11.929,-7.429 17.472,-11.745c1.379,-1.074 5.132,-2.945 5.787,-4.65c0.419,-1.088 -3.416,-3.338 -4.025,-3.773c-5.427,-3.87 -11.056,-7.418 -16.528,-11.22c-22.064,-15.328 -42.727,-32.734 -64.071,-49.044"
      style="fill:none;stroke:#fff;stroke-width:3.97px;"
    />
    <path
      d="M1183.82,605.955c-12.035,-2.923 -21.935,-8.677 -33.084,-13.799c-12.298,-5.649 -24.612,-10.397 -36.51,-16.91"
      style="fill:none;stroke:#fff;stroke-width:3.97px;"
    />
    <path
      d="M1131.24,573.971c2.242,1.086 4.45,2.208 6.635,3.405c1.569,0.859 3.142,1.71 4.656,2.664c0.706,0.445 1.603,2.072 2.084,1.39c0.918,-1.301 3.636,-6.019 3.672,-7.576c0.005,-0.218 -2.021,-0.943 -2.083,-0.969c-2.229,-0.942 -4.445,-1.895 -6.58,-3.039c-1.319,-0.706 -2.589,-1.511 -3.808,-2.377c-0.064,-0.045 -1.868,-1.471 -1.891,-1.452c-0.061,0.05 0.365,2.088 0.378,2.287c0.13,1.946 -0.147,3.589 -1.031,5.301"
      style="fill:none;stroke:#fff;stroke-width:3.97px;"
    />
    <path
      d="M1212.49,579.064c-0.312,0 0.075,1.385 0.086,1.45c0.277,1.662 0.426,3.347 0.426,5.033c0,0.947 0.045,1.874 0.086,2.815c0.087,2.004 -0.745,3.978 -0.427,5.886c0.049,0.295 -0.486,1.221 -0.256,1.45c0.336,0.336 1.453,-0.452 1.706,-0.597c1.772,-1.013 3.464,-2.323 5.033,-3.668c2.875,-2.465 5.503,-5.34 8.445,-7.763c3.269,-2.692 6.506,-6.036 5.118,-10.662c-0.745,-2.484 -3.371,-3.911 -5.886,-3.157c-2.913,0.874 -5.272,3.403 -7.848,4.948c-1.324,0.795 -2.979,2.143 -4.435,2.559c-0.332,0.095 -1.792,0.852 -1.792,0.597"
      style="fill:none;stroke:#fff;stroke-width:3.97px;"
    />
    <path
      d="M1268.03,542c0,-0.171 -0.011,0.341 0,0.512c0.058,0.875 0.085,0.908 0.085,1.706c0,1.615 -0.256,3.238 -0.256,4.862c0,3.909 1.791,8.138 5.886,8.957c0.929,0.185 2.079,0.347 2.986,-0.171c1.435,-0.82 1.06,-3.204 1.279,-4.521c0.525,-3.149 0.457,-6.698 0,-9.895c-0.142,-0.997 -1.056,-1.807 -1.62,-2.559c-0.66,-0.88 -1.724,-2.613 -3.071,-2.389c-0.731,0.122 -1.288,0.84 -1.962,1.109c-0.382,0.153 -0.749,0.187 -1.109,0.427c-0.94,0.627 -0.969,1.709 -1.536,2.559"
      style="fill:none;stroke:#fff;stroke-width:3.97px;"
    />
    <path
      d="M1211.68,521.071c0,-0.666 -0.029,1.348 0.133,1.994c0.338,1.353 1.068,2.579 1.196,3.989c0.41,4.506 1.171,6.898 4.919,9.04c0.461,0.263 3.314,1.206 3.722,0.797c3.828,-3.827 1.454,-13.576 -0.531,-17.548c-0.535,-1.069 -2.058,-4.219 -3.191,-4.786c-0.561,-0.28 -1.06,0.794 -1.329,1.064c-1.039,1.038 -2.427,2.037 -3.324,3.19c-0.647,0.832 -0.578,1.908 -1.196,2.526"
      style="fill:none;stroke:#fff;stroke-width:3.97px;"
    />
    <path
      d="M1264.85,455.116c0,-0.46 -1.838,3.09 -2.012,3.786c-0.57,2.282 -1.538,4.844 -1.538,7.218c0,0.453 -0.089,1.686 0.237,2.012c2.564,2.564 8.231,2.149 11.596,1.775c0.913,-0.102 2.335,0.691 3.195,0.118c1.125,-0.75 1.221,-2.804 1.657,-4.023c0.643,-1.802 0.931,-3.475 1.301,-5.325c0.076,-0.379 0.565,-1.829 0.355,-2.248c-0.396,-0.793 -1.965,-1.397 -2.721,-1.775c-2.314,-1.157 -5.52,-2.13 -8.165,-2.13c-0.952,0 -2.491,-0.704 -3.313,0.118"
      style="fill:none;stroke:#fff;stroke-width:3.97px;"
    />
    <path
      d="M1176,500.07c0,-0.229 -0.616,0.537 -0.616,0.308c0,-0.38 0.658,-0.592 0.821,-0.821c0.617,-0.865 0.843,-2.037 0.923,-3.078c0.19,-2.47 0.061,-4.937 0.411,-7.388c0.106,-0.745 -0.208,-2.048 0.205,-2.668c0.577,-0.866 2.749,-1.442 3.694,-1.847c1.613,-0.691 3.105,-2.132 4.925,-0.615c0.907,0.756 0.965,2.136 1.026,3.181c0.047,0.804 0.383,2.313 0,3.078c-1.513,3.026 -6.83,4.72 -9.953,4.72"
      style="fill:none;stroke:#fff;stroke-width:3.97px;"
    />
    <path
      d="M1204.52,723.968c13.731,27.461 27.948,54.759 42.979,81.529c3.909,6.962 7.655,14.011 11.426,21.048c0.641,1.195 2.509,6.367 3.847,6.9c0.152,0.061 1.782,-2.022 2.005,-2.271c2.272,-2.54 4.281,-5.274 6.099,-8.158c7.337,-11.645 14.237,-23.785 21.099,-35.73"
      style="fill:none;stroke:#fff;stroke-width:3.97px;"
    />
    <path
      d="M1354.57,817.492c6.043,-0.604 11.877,-1.341 17.731,-3.056c3.244,-0.95 6.526,-1.805 9.719,-2.922c2.374,-0.83 4.67,-1.806 6.913,-2.944c0.071,-0.036 2.267,-1.319 2.327,-1.266c0.403,0.351 0.224,2.777 0.285,3.397c0.271,2.773 1.798,7.94 0.652,10.621c-0.186,0.436 -2.395,0.947 -2.866,1.102c-2.984,0.983 -5.975,1.925 -8.974,2.861c-6.721,2.097 -13.148,3.464 -20.197,3.784c-1.678,0.076 -3.382,0.172 -5.061,0.07c-0.13,-0.008 -1.349,-0.019 -1.356,-0.054c-0.814,-3.731 -1.038,-8.559 0.332,-12.204"
      style="fill:none;stroke:#fff;stroke-width:3.97px;"
    />
    <path
      d="M1442.97,781.201c10.886,8.633 20.578,19.275 30.3,29.179c8.039,8.191 16.737,15.94 24.257,24.619"
      style="fill:none;stroke:#fff;stroke-width:3.97px;"
    />
    <path
      d="M1531.3,772.814c6.339,5.518 12.366,11.483 17.864,17.842"
      style="fill:none;stroke:#fff;stroke-width:3.97px;"
    />
    <path
      d="M1509.53,748.028c-3.885,-3.511 -7.941,-6.814 -11.679,-10.485"
      style="fill:none;stroke:#fff;stroke-width:3.97px;"
    />
    <path
      d="M1494.97,733.733c-2.1,-2.141 -4.252,-4.232 -6.337,-6.386"
      style="fill:none;stroke:#fff;stroke-width:3.97px;"
    />
    <path
      d="M1479.33,716.54c-2.582,-2.911 -5.251,-5.73 -7.763,-8.703"
      style="fill:none;stroke:#fff;stroke-width:3.97px;"
    />
    <path
      d="M1467.25,703.546c-5.319,-6.08 -10.429,-12.346 -15.955,-18.245c-8.316,-8.876 -17.192,-17.365 -24.759,-26.911"
      style="fill:none;stroke:#fff;stroke-width:3.97px;"
    />
    <path
      d="M1422.81,654.392c-5.918,-6.034 -11.311,-12.582 -17.102,-18.743"
      style="fill:none;stroke:#fff;stroke-width:3.97px;"
    />
    <path
      d="M1407.97,701.776c-1.655,4.568 -3.236,9.158 -5.055,13.664c-0.199,0.494 -1.967,4.094 -1.752,4.308c0.843,0.836 3.607,0.668 4.724,0.606c5.677,-0.314 9.789,-4.763 11.241,-10.272c0.356,-1.352 0.978,-5.906 -0.426,-6.861c-1.326,-0.902 -4.809,-0.416 -6.346,-0.321c-2.583,0.16 -5.141,0.572 -7.678,1.067"
      style="fill:none;stroke:#fff;stroke-width:3.97px;"
    />
    <path
      d="M1382.78,714.372c0,3.849 0,7.697 0,11.546c0,0.413 -0.686,3.663 -0.3,4.049c0.261,0.261 3.912,-1.288 4.348,-1.35c2.923,-0.417 5.998,2.763 5.998,-1.499c0,-0.18 0,-2.7 0,-2.7c0.034,-1.05 0.063,-2.101 0.15,-3.148c0.063,-0.754 1.507,-5.991 0.75,-6.748c-1.471,-1.471 -6.672,-0.6 -8.547,-0.6"
      style="fill:none;stroke:#fff;stroke-width:3.97px;"
    />
    <path
      d="M1507.91,561.498c0,-0.043 -0.405,2.738 -0.45,2.999c-0.586,3.415 -2.364,6.989 -2.699,10.347c-0.045,0.445 -0.056,1.537 0.15,1.949c0.224,0.449 1.068,-0.108 1.499,0.15c0.718,0.431 0.994,1.458 1.649,1.949c1.929,1.446 5.713,2.972 8.248,2.55c5.845,-0.975 2.071,-7.635 0.15,-10.197c-0.886,-1.181 -3.155,-2.983 -4.649,-3.149c-1.062,-0.118 -2.911,1.224 -3.599,-0.15"
      style="fill:none;stroke:#fff;stroke-width:3.97px;"
    />
    <path
      d="M1443.13,598.686c0,-0.676 2.352,1.242 2.849,1.649c1.812,1.482 3.875,2.529 5.698,4.049c1.392,1.16 3.751,1.725 5.399,2.549c4.496,2.248 9.491,5.698 14.545,5.698c1.385,0 6.885,-0.077 7.197,-1.949c0.422,-2.531 1.622,-6.381 0.75,-8.997c-1.206,-3.619 -4.509,-5.473 -6.598,-8.397c-1.129,-1.581 -2.211,-3.11 -2.999,-4.949c-0.337,-0.786 -0.3,-2.549 -0.3,-2.549c0,0 -0.299,1.694 -0.299,2.549c0,1.511 0.013,3.002 0.149,4.499c0.403,4.424 0.313,8.495 -0.749,12.745c-0.201,0.802 -2.487,5.161 -2.699,4.949c-2.139,-2.138 -2.889,-8.225 -3.299,-11.096c-0.516,-3.609 -2.643,-6.428 -3.749,-9.747c-0.938,-2.815 -1.814,-6.07 -2.399,-8.997c-0.416,-2.08 0.388,-10.082 -2.099,-10.497c-3.036,-0.505 -4.979,3.524 -5.849,5.698c-2.925,7.314 -5.998,15.202 -5.998,23.243"
      style="fill:none;stroke:#fff;stroke-width:3.97px;"
    />
    <path
      d="M1383.21,587.699c0,0.681 3.078,-2.909 3.328,-4.159c0.36,-1.799 0.662,-4.335 0,-6.101c-0.071,-0.19 -1.292,-2.612 -0.971,-2.773c3.763,-1.881 7.937,0.497 11.508,0.832c1.044,0.098 2.579,-0.714 3.605,-0.97c0.888,-0.222 3.826,-1.72 4.714,-0.832c0.339,0.339 0.138,2.422 0.138,2.911c0,2.579 -1.901,8.703 -4.02,10.399c-3.577,2.861 -7.443,1.443 -10.676,-1.387c-1.226,-1.072 -2.691,-1.231 -3.744,-2.634"
      style="fill:none;stroke:#fff;stroke-width:3.97px;"
    />
    <path
      d="M1389.91,495.248c0,0.289 -0.183,-2.645 -0.31,-3.405c-0.347,-2.08 -1.048,-6.297 -0.309,-8.512c0.538,-1.616 6.115,-1.367 7.428,-0.929c2.338,0.779 2.167,5.43 2.167,7.274c0,2.357 0.392,6.39 -1.083,8.358c-1.306,1.741 -3.745,2.491 -5.572,3.404c-0.867,0.434 -0.959,0.774 -2.012,0.774"
      style="fill:none;stroke:#fff;stroke-width:3.97px;"
    />
    <path
      d="M1460.33,485.343c31.493,-0.45 63.089,-0.935 94.568,0.106"
      style="fill:none;stroke:#fff;stroke-width:3.97px;"
    />
    <path
      d="M1415.7,407.838c18.001,6.338 36.032,11.826 54.263,17.417"
      style="fill:none;stroke:#fff;stroke-width:3.97px;"
    />
    <path
      d="M1515.77,395.11c12.062,1.723 24.01,4.176 35.983,6.399"
      style="fill:none;stroke:#fff;stroke-width:3.97px;"
    />
    <path
      d="M1394.22,390.656c2.828,1.414 5.282,3.046 7.795,4.932c1.766,1.324 3.731,2.493 4.932,4.295c1.215,1.823 7.062,0.155 6.046,-2.386c-0.422,-1.055 -1.76,-1.61 -2.228,-2.546c-2.656,-5.312 -14.722,-12.641 -19.568,-7.795"
      style="fill:none;stroke:#fff;stroke-width:3.97px;"
    />
    <path
      d="M1481.4,382.383c0,-2.224 2.189,-5.552 3.023,-7.636c2.542,-6.355 6.685,-13.74 10.819,-19.251c3.262,-4.35 6.006,-9.167 0.159,-12.091c-3.973,-1.986 -6.973,4.79 -8.75,7.159c-5.045,6.727 -9.471,14.646 -13.205,22.114c-1.553,3.107 2.277,7.829 4.614,9.387c1.235,0.823 1.669,-0.318 2.545,-0.318"
      style="fill:none;stroke:#fff;stroke-width:3.97px;"
    />
    <path
      d="M1446.32,299.125c-0.199,0 0.776,4.445 1.75,4.932c1.019,0.51 2.298,-0.738 3.341,-0.477c0.849,0.212 0.949,1.625 1.431,2.227c1.711,2.138 2.733,4.904 0.319,7.318c-0.791,0.791 -1.814,0.796 -2.864,0.796c-0.547,0 -3.401,1.053 -3.818,0.636c-1.275,-1.274 -1.243,-9.386 0.795,-9.386"
      style="fill:none;stroke:#fff;stroke-width:3.97px;"
    />
    <path
      d="M1501.04,271.125c0,-0.828 1.205,-0.523 1.75,-1.75c1.496,-3.365 2.71,-7.996 7,-9.068c2.219,-0.555 3.439,-0.488 4.773,1.113c0.414,0.496 1.606,0.391 1.75,1.114c1.459,7.294 -8.748,10.821 -12.568,5.091"
      style="fill:none;stroke:#fff;stroke-width:3.97px;"
    />
    <path
      d="M1432.48,275.898c-0.152,0.151 -1.457,-1.707 -1.91,-2.069c-1.379,-1.103 -3.422,-2.63 -3.977,-4.295c-0.313,-0.94 0,-2.655 0,-3.659c0,-2.85 1.023,-13.796 -5.25,-10.659c-3.153,1.576 -2.386,7.081 -2.386,10.022c0,5.684 -2.441,11.605 5.25,12.887c1.103,0.184 1.969,-0.645 3.023,-0.796c1.275,-0.182 3.285,0.215 4.295,-0.795"
      style="fill:none;stroke:#fff;stroke-width:3.97px;"
    />
    <path
      d="M1240.91,404.374c0,2.127 1.822,4.306 3.248,5.733c1.875,1.874 3.31,3.279 5.542,4.395c0.387,0.193 2.027,-1.715 2.484,-1.911c2.631,-1.128 4.312,-2.593 6.114,-4.395c0.522,-0.521 -4.582,-3.818 -4.968,-4.204c-0.576,-0.576 -5.989,-5.137 -6.497,-4.968c-1.239,0.413 -1.642,1.834 -2.866,2.293c-1.205,0.452 -2.104,0.577 -2.866,1.72"
      style="fill:none;stroke:#fff;stroke-width:3.97px;"
    />
    <path
      d="M1225.43,377.814c0,-1.182 1.827,0.353 2.102,0.573c1.518,1.214 4.405,3.92 6.306,4.395c1.97,0.492 3.723,-3.817 4.395,-5.159c0.378,-0.757 -2.566,-1.42 -2.867,-1.529c-1.558,-0.567 -2.793,-2.205 -4.203,-2.675c-1.158,-0.386 -4.285,1.979 -5.542,2.293"
      style="fill:none;stroke:#fff;stroke-width:3.97px;"
    />
    <path
      d="M1215.88,355.075c0,-0.545 0.413,1.008 0.573,1.528c0.449,1.461 0.742,3.195 1.338,4.586c1.063,2.482 8.792,2.293 10.7,2.293"
      style="fill:none;stroke:#fff;stroke-width:3.97px;"
    />
    <path
      d="M1224.1,360.807c-2.953,-2.954 -2.5,-8.227 -7.07,-11.083c-1.282,-0.801 -2.533,-2.555 -4.203,-1.719"
      style="fill:none;stroke:#fff;stroke-width:3.97px;"
    />
    <path
      d="M1342,384.119c-0.164,-0.164 -1.083,-0.828 -1.146,-0.764c-0.521,0.521 3.27,1.565 3.63,1.72c2.687,1.151 7.262,1.307 7.262,5.159"
      style="fill:none;stroke:#fff;stroke-width:3.97px;"
    />
    <path
      d="M1341.09,295.604c0,-0.281 -0.023,3.895 0,4.221c0.162,2.35 0.207,6.808 2.657,8.441c0.641,0.427 4.912,-4.13 5.472,-4.689c1.277,-1.278 3.104,-1.742 4.533,-2.814c0.295,-0.221 1.094,0.212 1.094,-0.157c0,-0.726 -1.177,-2.502 -1.407,-3.126c-0.559,-1.519 -0.739,-4.136 -1.407,-5.472c-0.003,-0.007 -1.012,0.589 -1.094,0.626c-1.039,0.462 -2.075,1.169 -3.126,1.563c-1.577,0.591 -1.552,0.174 -2.971,0.782c-0.79,0.338 -2.758,2.345 -3.595,2.345"
      style="fill:none;stroke:#fff;stroke-width:3.97px;"
    />
    <path
      d="M1314.83,250.269c0.43,0.43 1.746,-1.362 2.032,-1.876c1.182,-2.127 -0.108,-4.812 0.782,-7.034c0.999,-2.498 6.247,-3.18 8.441,-2.814c0.454,0.075 1.226,-0.337 1.563,0c0.47,0.47 0.157,3.64 0.157,4.221c0,1.602 0.642,4.038 -0.313,5.471c-1.783,2.675 -6.948,2.501 -9.692,2.501c-0.914,0 -1.339,0.626 -2.189,0.626"
      style="fill:none;stroke:#fff;stroke-width:3.97px;"
    />
    <path
      d="M1260.89,282.941c-0.166,-0.496 -0.322,-2.06 -0.156,-1.563c0.916,2.75 2.202,7.932 1.25,10.787c-0.343,1.031 -0.938,1.819 -0.938,2.97c0,1.277 -0.152,2.554 1.407,2.814c6.787,1.131 10.816,-11.326 3.22,-11.326c-1.246,0 -2.464,0.943 -3.532,1.477"
      style="fill:none;stroke:#fff;stroke-width:3.97px;"
    />
    <path
      d="M1411.46,171.264c-0.266,-0.133 -0.801,-0.847 -0.535,-0.714c1.943,0.972 2.669,6.17 3.21,8.026c0.791,2.713 0.925,5.447 1.427,8.204c0.056,0.311 0.484,2.871 1.07,2.675c5.398,-1.799 6.35,-11.284 4.994,-15.694c-0.401,-1.303 -1.562,-3.991 -2.854,-4.637c-2.443,-1.222 -4.9,1.248 -7.134,1.248"
      style="fill:none;stroke:#fff;stroke-width:3.97px;"
    />
    <path
      d="M1481.4,176.723c25.047,-16.046 54.076,-24.62 79.14,-40.753"
      style="fill:none;stroke:#fff;stroke-width:3.97px;"
    />
    <path
      d="M1543.67,89.582c0,-2.927 -4.159,3.683 -3.72,5.875c0.292,1.462 2.829,3.862 4.112,4.504c0.899,0.449 2.464,-0.277 3.133,0.391"
      style="fill:none;stroke:#fff;stroke-width:3.97px;"
    />
    <path
      d="M1350.49,131.511c10.515,-21.71 20.141,-43.924 30.842,-65.515c4.033,-8.137 8.683,-15.95 12.638,-24.127c4.659,-9.63 8.692,-19.567 13.569,-29.088c1.611,-3.145 3.297,-8.122 5.76,-10.793c0.004,-0.005 2.995,3.928 3.265,4.326c3.561,5.245 6.481,10.89 9.666,16.364c8.384,14.414 14.947,30.024 24.08,44.002"
      style="fill:none;stroke:#fff;stroke-width:3.97px;"
    />
    <path
      d="M1315.79,25.63c-0.216,-0.216 2.37,0.385 2.654,0.473c1.802,0.556 3.56,1.159 5.309,1.866c4.353,1.759 9.456,7.832 10.94,0.879c0.194,-0.911 0.355,-1.863 0.381,-2.795c0.145,-5.218 -9.946,-9.575 -14.49,-7.797c-3.214,1.258 -4.385,5.846 -4.503,8.933"
      style="fill:none;stroke:#fff;stroke-width:3.97px;"
    />
    <path
      d="M1238.75,87.67c0,0.309 1.46,-1.438 1.531,-1.541c0.912,-1.324 1.704,-2.674 2.478,-4.084c2.374,-4.321 3.462,-8.584 3.871,-13.486"
      style="fill:none;stroke:#fff;stroke-width:3.97px;"
    />
    <path
      d="M1246.64,131.757c0,-1.058 3.168,-3.594 3.842,-4.279c1.469,-1.491 3.853,-5.348 5.996,-5.884c2.365,-0.592 8.809,6.712 8.576,8.994c-0.164,1.61 -7.664,13.282 -8.938,13.532c-3.978,0.78 -10.259,-8.649 -9.69,-12.066"
      style="fill:none;stroke:#fff;stroke-width:3.97px;"
    />
    <path
      d="M1212.06,109.017c-0.921,0 1.387,-1.219 2.005,-1.902c1.227,-1.355 2.428,-2.731 3.666,-4.075c3.721,-4.036 7.392,-8.196 10.776,-12.521"
      style="fill:none;stroke:#fff;stroke-width:3.97px;"
    />
    <path
      d="M1186.31,116.675c-2.051,2.051 -2.336,15.165 2.079,13.031c4.766,-2.304 10.184,-17.09 0.613,-14.479"
      style="fill:none;stroke:#fff;stroke-width:3.97px;"
    />
    <path
      d="M1093.71,118.191c0,0.034 1.333,-1.491 1.584,-1.783c1.108,-1.293 2.208,-2.582 3.272,-3.913c3.154,-3.942 6.145,-8.003 9.2,-12.021c9.331,-12.271 17.07,-25.998 26.729,-37.911"
      style="fill:none;stroke:#fff;stroke-width:3.97px;"
    />
    <path
      d="M1093.64,182.568c0,-1.297 1.253,2.274 1.951,3.368c1.003,1.572 4.148,4.25 4.248,6.199c0.154,3.003 -3.207,4.924 -3.724,7.679c-0.675,3.602 1.834,7.297 2.392,10.783c0.221,1.378 0.331,2.77 0.357,4.165c0.003,0.152 -0.094,1.781 0.031,1.752c2.168,-0.5 5.782,-6.846 7.039,-8.434c5.557,-7.019 12.579,-12.86 17.802,-20.151c1.973,-2.756 5.035,-6.689 1.216,-8.843c-8.344,-4.707 -19.277,6.816 -28.05,5.601"
      style="fill:none;stroke:#fff;stroke-width:3.97px;"
    />
    <path
      d="M1050.89,215.874c0,-0.677 0.478,1.266 0.745,1.888c0.518,1.209 0.968,2.45 1.427,3.682c0.684,1.838 2.84,14.716 5.675,13.753c6.99,-2.377 3.748,-11.543 1.772,-16.449c-0.504,-1.253 -1.542,-5.244 -3.178,-5.675c-1.361,-0.358 -3.391,1.734 -4.259,2.486"
      style="fill:none;stroke:#fff;stroke-width:3.97px;"
    />
    <path
      d="M1049.58,276.978c0,-0.91 1.228,1.345 1.857,2.004c0.893,0.936 3.492,5.065 4.909,4.699c1.048,-0.27 8.406,-14.554 7.899,-15.378c-5.881,-9.557 -12.837,5.081 -14.791,9.441"
      style="fill:none;stroke:#fff;stroke-width:3.97px;"
    />
    <path
      d="M1023.16,356.612c-0.005,0 0.904,1.129 1.044,1.294c0.782,0.922 1.544,1.854 2.368,2.739c1.467,1.577 5.79,7.378 8.589,6.312c4.723,-1.8 5.15,-9.423 10.355,-10.436c8.257,-1.605 18.075,0.623 26.418,0.623c2.533,0 7.841,1.18 9.964,-0.713c1.014,-0.905 1.482,-2.264 1.916,-3.512c3.618,-10.4 -14.494,-5.443 -20.79,-7.234c-1.721,-0.489 -5.382,-1.251 -6.02,-3.301c-0.764,-2.456 4.432,-7.515 5.689,-9.281c6.197,-8.705 15.356,-19.953 4.676,-29.108c-2.006,-1.72 -4.295,2.455 -5.238,3.763c-4.002,5.551 -8.401,11.121 -11.98,16.947c-2.8,4.557 -5.021,8.748 -10.214,10.876c-3.087,1.265 -10.175,1.271 -12.161,3.883c-2.434,3.203 0.682,6.65 -0.01,10.014c-0.561,2.726 -3.287,4.593 -4.184,7.204"
      style="fill:none;stroke:#fff;stroke-width:3.97px;"
    />
    <path
      d="M1130.02,397.75c3.15,-3.15 6.685,-14.777 8.98,-19.124c3.611,-6.837 7.484,-13.525 10.747,-20.539c0.295,-0.636 3.11,-5.634 2.508,-6.201c-0.464,-0.436 -3.274,1.938 -3.622,2.187c-3.471,2.484 -6.916,5.007 -10.696,7.014c-2.137,1.134 -9.316,1.051 -9.592,1.274c-1.919,1.548 -3.072,6.001 -4.124,8.168c-2.808,5.778 -6.018,11.333 -8.83,17.107c-0.902,1.852 -3.486,5.977 -1.786,7.967c2.947,3.448 11.944,1.332 15.904,1.414"
      style="fill:none;stroke:#fff;stroke-width:3.97px;"
    />
    <path
      d="M1007.68,692.979c12.793,25.585 27.296,50.299 40.015,75.934c13.526,27.262 25.845,55.11 40.847,81.625"
      style="fill:none;stroke:#fff;stroke-width:3.97px;"
    />
    <path
      d="M1033.05,389.361c0,-0.354 0.881,0.875 1.097,1.12c0.723,0.823 1.441,1.651 2.156,2.482c2.146,2.491 4.536,5.902 7.536,7.46c2.387,1.239 5.607,-6.549 5.985,-8.202c0.608,-2.662 -6.897,-6.84 -8.626,-8.201c-0.359,-0.284 -2.555,-2.3 -3.064,-2.164c-2.101,0.56 -3.345,6.525 -4.085,8.322"
      style="fill:none;stroke:#fff;stroke-width:3.97px;"
    />
    <path
      d="M988.792,441.378c0,-0.868 1.503,-2.278 1.997,-2.944c2.007,-2.701 4.058,-5.367 6.098,-8.042c6.863,-8.996 13.054,-18.347 19.468,-27.662c1.756,-2.55 3.477,-5.132 5.16,-7.732c0.493,-0.762 1.108,-2.375 1.997,-2.762c1.157,-0.503 2.583,1.252 3.193,1.983c1.879,2.249 6.322,7.191 6.378,10.335c0.072,4.045 -5.006,9.527 -6.764,12.945c-2.691,5.232 -5.653,10.321 -8.338,15.556c-0.858,1.674 -1.99,5.231 -3.873,6.083c-2.943,1.331 -8.208,0.285 -11.463,0.757c-3.837,0.555 -7.163,2.273 -10.524,4.07c-0.777,0.415 -2.449,1.063 -2.974,-0.03"
      style="fill:none;stroke:#fff;stroke-width:3.97px;"
    />
    <path
      d="M967.985,388.605c0.171,-0.343 -0.34,3.903 -0.499,4.653c-0.672,3.168 -1.682,6.288 -2.194,9.488c-0.114,0.708 -0.567,2.777 0.529,2.973c2.383,0.425 5.563,-2.082 7.521,-3.132c2.049,-1.1 5.317,-0.948 6.961,-1.922c1.484,-0.88 1.452,-6.737 1.709,-8.247c0.071,-0.413 1.929,-6.472 1.726,-6.628c-0.822,-0.628 -3.272,0.465 -4.063,0.689c-3.367,0.95 -6.864,2.459 -10.419,2.383"
      style="fill:none;stroke:#fff;stroke-width:3.97px;"
    />
    <path
      d="M940.18,421.706c0,-0.717 2.525,-3.093 2.989,-3.685c2.388,-3.042 6.739,-9.624 10.584,-4.305c2.772,3.834 1.855,10.652 0.984,14.966c-0.194,0.963 -0.628,4.878 -2.088,4.804c-1.591,-0.081 -3.297,-1.942 -4.328,-2.973c-3.061,-3.061 -5.304,-6.544 -7.778,-10.048"
      style="fill:none;stroke:#fff;stroke-width:3.97px;"
    />
    <path
      d="M961.648,300.848c0,0.81 -0.571,-1.516 -0.847,-2.277c-0.603,-1.657 -0.834,-3.492 0.068,-5.115c1.55,-2.789 6.76,-3.016 9.071,-1.119c4.635,3.802 -3.387,17.493 -7.316,11.969"
      style="fill:none;stroke:#fff;stroke-width:3.97px;"
    />
    <path
      d="M936.302,246.941c0,-0.518 -0.699,0.77 -0.984,1.203c-0.621,0.942 -1.175,1.907 -1.46,3.011c-0.724,2.805 0.59,7.195 4.139,7.089c5.734,-0.171 6.07,-12.418 0.264,-11.644"
      style="fill:none;stroke:#fff;stroke-width:3.97px;"
    />
    <path
      d="M959.378,203.058c-0.201,0 0.928,0.856 1.075,0.968c0.755,0.579 1.519,1.154 2.307,1.687c2.081,1.41 5.042,4.357 7.513,4.918c3.461,0.787 7.534,-6.152 9.556,-8.148c0.718,-0.709 2.887,-2.098 2.815,-3.254c-0.172,-2.753 -4.356,-4.625 -6.651,-4.698c-5.622,-0.18 -12.095,3.611 -15.321,8.02"
      style="fill:none;stroke:#fff;stroke-width:3.97px;"
    />
    <path
      d="M976.112,159.238c34.017,-51.025 66.484,-102.935 99.133,-154.879"
      style="fill:none;stroke:#fff;stroke-width:3.97px;"
    />
    <path
      d="M938.462,101.557c-0.147,0 1.265,-1.131 1.429,-1.226c1.124,-0.658 2.305,-1.194 3.485,-1.738c3.545,-1.633 7.433,-0.221 10.465,-1.4c3.091,-1.202 3.554,-12.341 1.313,-14.365c-1.808,-1.632 -5.558,-0.786 -7.578,-0.193c-7.831,2.298 -10.711,11.115 -9.664,18.449"
      style="fill:none;stroke:#fff;stroke-width:3.97px;"
    />
    <path
      d="M911.432,165.513c-1.837,-1.837 -9.338,5.671 -10.938,0.55c-1.529,-4.893 5.244,-10.848 8.92,-12.791c1.083,-0.572 4.184,-2.128 5.368,-1.071c5.231,4.67 -7.105,17.97 0.26,21.846c9.131,4.806 12.258,-9.23 1.458,-12.048"
      style="fill:none;stroke:#fff;stroke-width:3.97px;"
    />
    <path
      d="M927.843,165.03c0,-3.743 0.27,-7.416 0.744,-11.14c0.284,-2.234 0.633,-4.473 1.255,-6.642c1.06,-3.701 6.108,-11.442 7.983,-3.601c1.078,4.508 -2.671,21.843 -8.234,22.667"
      style="fill:none;stroke:#fff;stroke-width:3.97px;"
    />
    <path
      d="M885.849,73.561c0,0.868 0.956,-1.453 1.361,-2.221c0.817,-1.545 1.638,-3.087 2.472,-4.624c2.622,-4.833 5.291,-9.656 8.032,-14.423c8.232,-14.32 18.185,-27.475 26.886,-41.492"
      style="fill:none;stroke:#fff;stroke-width:3.97px;"
    />
    <path
      d="M809.902,151.55c0,-0.33 0.132,0.883 0.154,1.013c0.152,0.871 0.303,1.742 0.463,2.611c0.533,2.876 1.263,5.763 2.369,8.476c0.175,0.428 0.829,2.503 1.564,2.234c1.499,-0.548 2.893,-2.986 3.886,-4.134c2.747,-3.175 5.614,-6.197 8.885,-8.845c4.523,-3.66 9.717,-6.775 14.663,-9.831c0.576,-0.356 5.085,-2.447 5.268,-3.181c0.469,-1.873 -2.208,-6.417 -2.751,-8.248c-0.383,-1.29 -0.028,-3.802 -0.678,-4.885c-0.214,-0.357 -1.888,0.728 -2.08,0.839c-2.513,1.449 -4.802,3.289 -7.127,5.013c-4.738,3.51 -9.573,6.836 -14.046,10.69c-3.812,3.284 -7.593,7.392 -12.033,9.858"
      style="fill:none;stroke:#fff;stroke-width:3.97px;"
    />
    <path
      d="M824.834,81.924c0,-1.386 -3.446,-4.231 -4.335,-5.053c-5.803,-5.365 -14.285,-3.679 -17.966,3.302c-2.989,5.67 0.442,8.744 6.148,6.529c1.38,-0.535 2.674,-1.236 3.959,-1.966c2.468,-1.403 4.828,-3.135 6.61,-5.362"
      style="fill:none;stroke:#fff;stroke-width:3.97px;"
    />
    <path
      d="M768.966,147.355c0,-0.16 -4.559,-0.91 -4.96,-1.006c-4.7,-1.125 -10.622,-2.033 -11.241,-7.751c-0.076,-0.704 -0.465,-2.145 -0.094,-2.799c0.9,-1.584 5.157,-0.14 6.45,0.081c2.721,0.465 10.744,1.724 11.885,5.02c0.393,1.136 -0.808,2.895 -1.289,3.838"
      style="fill:none;stroke:#fff;stroke-width:3.97px;"
    />
    <path
      d="M807.266,37.129c0,0.176 -2.15,-1.502 -2.578,-1.755c-1.788,-1.054 -3.643,-2.104 -5.524,-2.978c-1.259,-0.585 -2.531,-0.936 -3.896,-1.153c-4.067,-0.647 -13.843,-2.845 -15.358,2.677c-1.052,3.835 2.228,6.605 5.557,7.533c4.229,1.18 8.414,0.109 12.506,-1.03c1.95,-0.543 4.241,-1.07 5.745,-2.527"
      style="fill:none;stroke:#fff;stroke-width:3.97px;"
    />
    <path
      d="M825.969,24.308c0.425,0 -0.853,-0.073 -1.261,-0.193c-0.845,-0.249 -1.674,-0.55 -2.513,-0.819c-2.396,-0.768 -4.893,-1.772 -7.391,-2.131c-3.409,-0.49 -4.129,1.926 -6.837,2.329c-3.541,0.526 -7.551,-0.778 -11.123,-0.941c-2.995,-0.137 -6.987,-0.711 -6.361,-4.621c0.328,-2.05 1.329,-4.002 2.409,-5.749c1.259,-2.039 3.898,-6.909 6.465,-7.632c1.087,-0.306 2.767,0.845 3.726,1.237c3.089,1.263 6.172,2.521 9.194,3.939c6.071,2.848 12.61,5.952 13.409,13.348"
      style="fill:none;stroke:#fff;stroke-width:3.97px;"
    />
    <path
      d="M690.21,83.978c0,-7.424 -1.764,-15.041 -2.755,-22.38c-2.437,-18.067 -4.794,-36.239 -8.471,-54.1"
      style="fill:none;stroke:#fff;stroke-width:3.97px;"
    />
    <path
      d="M660.227,142.342c-0.082,0 -0.828,2.043 -0.903,2.198c-0.737,1.513 -4.095,5.065 -2.568,6.824c2.044,2.352 8.946,0.827 8.946,-2.58c0,-2.876 -3.804,-4.046 -5.139,-6.253"
      style="fill:none;stroke:#fff;stroke-width:3.97px;"
    />
    <path
      d="M663.064,186.567c-0.694,0 -0.434,3.079 -0.4,3.382c0.33,2.929 3.362,6.967 6.736,4.984c4.75,-2.792 -0.542,-9.898 -4.946,-9.165"
      style="fill:none;stroke:#fff;stroke-width:3.97px;"
    />
    <path
      d="M670.817,252.768c-0.569,0 0.988,0.572 1.501,0.82c1.029,0.496 2.104,0.902 3.185,1.27c2.728,0.929 11.538,3.706 12.05,-1.335c0.303,-2.986 -5.214,-11.475 -9.169,-9.914c-3.167,1.25 -4.693,5.89 -6.867,8.239"
      style="fill:none;stroke:#fff;stroke-width:3.97px;"
    />
    <path
      d="M623.787,35.706c0.204,0.408 -0.402,-0.823 -0.651,-1.205c-0.545,-0.837 -1.051,-1.694 -1.54,-2.565c-1.479,-2.641 -3.043,-5.227 -4.888,-7.632c-4.945,-6.449 -10.474,-6.255 -17.823,-5.823c-2.209,0.13 -5.845,-0.314 -7.246,1.787c-0.743,1.115 -1.069,2.436 -1.193,3.753c-0.088,0.925 -0.107,1.861 -0.093,2.79c0.098,6.196 6.956,3.109 10.543,5.845c4.003,3.054 4.208,13.429 11.114,10.422c1.105,-0.481 2.14,-1.084 3.176,-1.694c1.451,-0.854 2.827,-1.803 4.249,-2.698"
      style="fill:none;stroke:#fff;stroke-width:3.97px;"
    />
    <path
      d="M415.728,26.483c-1.06,-4.242 -0.951,-9.192 -0.303,-13.474c0.202,-1.332 0.528,-3.926 1.907,-4.696c2.851,-1.591 7.631,-1.754 10.779,-2.59c2.673,-0.709 6.148,-2.537 8.911,-1.416c3.867,1.569 2.934,7.32 0.491,9.611c-5.985,5.611 -15.285,5.542 -20.737,12.311"
      style="fill:none;stroke:#fff;stroke-width:3.97px;"
    />
    <path
      d="M361.396,45.424c0,0.426 -0.529,-0.667 -0.767,-1.02c-0.494,-0.729 -0.976,-1.476 -1.411,-2.242c-1.227,-2.165 -2.274,-4.428 -3.335,-6.677c-3.166,-6.715 -5.956,-13.612 -8.615,-20.544c-0.572,-1.49 -3.002,-5.725 -0.716,-6.727c1.951,-0.855 8.97,-2.145 10.843,-0.94c1.571,1.01 2.447,5.035 3.104,6.647c2.403,5.902 4.918,11.72 7.971,17.318c2.298,4.212 4.842,8.304 7.567,12.254c0.297,0.43 2.819,3.376 2.155,3.942c-1.074,0.917 -4.06,0.03 -5.251,-0.108c-4.338,-0.505 -8.689,-1.532 -13.057,-1.7"
      style="fill:none;stroke:#fff;stroke-width:3.97px;"
    />
    <path
      d="M291.987,45.069c-0.283,-0.282 0.443,0.664 0.667,0.994c0.489,0.718 0.966,1.444 1.454,2.163c1.308,1.93 2.581,3.885 3.88,5.821c3.901,5.811 8.367,11.236 12.24,17.045"
      style="fill:none;stroke:#fff;stroke-width:3.97px;"
    />
    <path
      d="M318.761,84.361c0,-0.582 0.668,0.775 0.932,1.14c0.758,1.051 1.518,2.1 2.246,3.172c2.126,3.13 4.299,6.233 6.489,9.319"
      style="fill:none;stroke:#fff;stroke-width:3.97px;"
    />
    <path
      d="M350.316,129.738c2.799,4.199 5.588,8.448 8.492,12.574"
      style="fill:none;stroke:#fff;stroke-width:3.97px;"
    />
    <path
      d="M361.443,147.124c1.611,1.611 2.963,3.685 4.389,5.466"
      style="fill:none;stroke:#fff;stroke-width:3.97px;"
    />
    <path
      d="M373.266,165.205c0.733,2.199 2.876,4.535 4.117,6.475c2.935,4.59 5.843,9.195 8.748,13.804c8.977,14.239 17.422,28.765 27.122,42.533"
      style="fill:none;stroke:#fff;stroke-width:3.97px;"
    />
    <path
      d="M418.122,236.368c1.593,1.593 2.597,4.301 3.725,6.217c2.863,4.861 5.648,9.773 8.457,14.666"
      style="fill:none;stroke:#fff;stroke-width:3.97px;"
    />
    <path
      d="M463.866,281.571c0,0.468 -0.587,-0.731 -0.872,-1.102c-0.627,-0.818 -1.243,-1.646 -1.851,-2.478c-1.945,-2.662 -3.763,-5.433 -5.612,-8.162c-1.813,-2.677 -8.132,-10.291 -4.689,-13.629c1.71,-1.659 4.918,-2.188 7.081,-3.084c0.984,-0.407 2.773,-2.256 3.623,-2.384c1.161,-0.174 4.15,5.989 4.366,6.988c0.501,2.322 -2.063,6.137 -2.378,8.55c-0.704,5.398 0.308,10.416 1.852,15.56"
      style="fill:none;stroke:#fff;stroke-width:3.97px;"
    />
    <path
      d="M461.164,240.51c0,0.07 -2.355,-2.036 -2.593,-2.305c-1.058,-1.196 -5.415,-6.85 -2.399,-8.184c2.769,-1.224 8.329,0.459 8.465,3.977c0.112,2.919 -1.729,5.23 -2.608,7.866"
      style="fill:none;stroke:#fff;stroke-width:3.97px;"
    />
    <path
      d="M486.017,244.652c0,0.168 -3.619,1.519 -3.911,1.65c-2.813,1.253 -6.471,3.372 -9.61,3.443c-1.418,0.032 -3.354,-0.522 -3.4,-2.24c-0.116,-4.321 8.166,-7.652 11.086,-9.653c1.134,-0.777 3.398,-2.356 4.855,-1.527c2.716,1.545 1.924,7.455 1.751,9.926"
      style="fill:none;stroke:#fff;stroke-width:3.97px;"
    />
    <path
      d="M507.239,272.679c-1.175,0 0.699,3.722 0.962,4.137c1.463,2.313 5.799,6.566 8.684,6.99c2.496,0.368 3.255,-6.183 3.59,-7.747"
      style="fill:none;stroke:#fff;stroke-width:3.97px;"
    />
    <path
      d="M506.086,259.667c-0.089,0 -0.067,1.296 -0.059,1.39c0.13,1.456 0.986,3.038 1.95,4.118c2.508,2.808 7.978,2.206 11.365,2.385c1.617,0.085 3.535,0.434 4.322,-1.338c0.347,-0.782 0.456,-1.646 0.527,-2.49c0.72,-8.565 -11.109,-3.187 -16.28,-3.749"
      style="fill:none;stroke:#fff;stroke-width:3.97px;"
    />
    <path
      d="M510.863,253.572c-0.433,0 0.86,0.096 1.291,0.132c0.933,0.079 1.859,0.172 2.787,0.297c2.779,0.373 7.511,1.092 8.341,-2.682c1.461,-6.643 -7.25,-7.676 -8.954,-1.713"
      style="fill:none;stroke:#fff;stroke-width:3.97px;"
    />
    <path
      d="M552.37,197.077c0.804,0 -1.475,0.729 -2.023,1.318c-1.047,1.123 -1.902,2.571 -2.682,3.887c-2.558,4.318 -2.986,12.024 -10.047,10.857c-0.962,-0.158 -2.003,-0.433 -2.76,-1.08c-2.884,-2.465 -0.576,-9.279 0.079,-12.314c0.313,-1.454 0.621,-3.136 2.082,-3.854c4.259,-2.095 8.729,2.149 11.523,4.869"
      style="fill:none;stroke:#fff;stroke-width:3.97px;"
    />
    <path
      d="M557.311,204.324c0,-1.032 1.517,-2.645 2.029,-3.452c1.914,-3.018 4.061,-7.863 7.3,-9.685c2.689,-1.513 6.074,0.313 6.252,3.452c0.292,5.136 -5.44,9.037 -8.716,12.097c-1.085,1.013 -2.088,2.152 -2.84,3.439c-0.185,0.317 -0.528,1.76 -0.83,1.891c-0.431,0.187 -1.184,-1.167 -1.337,-1.417c-1.113,-1.808 -1.872,-3.993 -1.996,-6.114"
      style="fill:none;stroke:#fff;stroke-width:3.97px;"
    />
    <path
      d="M634.306,357.625c0,-3.553 -0.687,-7.13 -0.552,-10.744c0.029,-0.804 0.088,-1.613 0.258,-2.4c0.016,-0.077 0.383,-1.107 0.32,-1.149c-0.205,-0.137 -1.293,0.51 -1.46,0.592c-1.347,0.663 -2.634,1.451 -3.919,2.226c-1.118,0.675 -2.221,1.375 -3.335,2.058c-0.836,0.513 -1.668,1.028 -2.475,1.585c-2.674,1.844 -10.745,6.023 -4.68,9.315c0.73,0.396 1.503,0.715 2.315,0.899c3.643,0.826 7.689,-1.219 10.607,-3.241c1.522,-1.056 3.235,-3.069 5.307,-2.681"
      style="fill:none;stroke:#fff;stroke-width:3.97px;"
    />
    <path
      d="M582.208,331.799c-0.041,0.042 -0.319,-0.923 -0.334,-0.98c-0.163,-0.615 -0.29,-1.239 -0.405,-1.865c-0.363,-1.98 -0.654,-4.228 0.058,-6.167c1.174,-3.201 4.947,-2.594 6.964,-0.602c2.343,2.315 0.637,5.06 -0.717,7.419c-2.72,4.738 -6.042,9.064 -7.36,14.458"
      style="fill:none;stroke:#fff;stroke-width:3.97px;"
    />
    <path
      d="M574.082,337.365c-2.255,0 -6.34,0.568 -8.331,-0.539c-1.006,-0.559 -1.289,-3.095 -1.559,-4.07c-0.967,-3.497 -3.215,-8.886 -0.922,-12.356c0.812,-1.228 4.491,-0.24 5.727,-0.16c0.537,0.034 1.604,-0.139 1.901,0.449c0.825,1.631 0.638,4.038 0.891,5.807c0.598,4.187 1.318,8.621 3.535,12.294"
      style="fill:none;stroke:#fff;stroke-width:3.97px;"
    />
    <path
      d="M521.096,348.545c-0.07,0 0.065,-1.509 0.072,-1.591c0.148,-1.805 0.316,-3.61 0.482,-5.413c0.118,-1.275 0.276,-2.545 0.437,-3.816c0.123,-0.97 0.23,-1.944 0.38,-2.911c0.12,-0.773 0.272,-1.544 0.467,-2.301c0.409,-1.588 2.639,-7.458 5.367,-6.46c1.789,0.655 2.292,3.483 2.567,5.058c0.852,4.874 0.564,9.865 0.38,14.785c-0.057,1.535 0.299,4.138 -0.56,5.505c-0.573,0.913 -1.969,0.807 -2.88,0.647c-2.254,-0.396 -5.822,-1.168 -7.251,-3.153"
      style="fill:none;stroke:#fff;stroke-width:3.97px;"
    />
    <path
      d="M489.613,327.472c11.812,0 18.622,-0.252 27.487,8.612"
      style="fill:none;stroke:#fff;stroke-width:3.97px;"
    />
    <path
      d="M478.449,330.396c-0.288,0.287 1.023,-0.436 1.191,-0.596c0.853,-0.812 1.629,-1.714 2.435,-2.573c2.314,-2.468 4.628,-4.982 6.624,-7.72c4.635,-6.356 0.804,-9.975 -6.167,-11.834c-0.178,-0.047 -0.393,2.231 -0.436,2.467c-0.295,1.621 -0.69,3.225 -1.191,4.795c-1.431,4.481 -4.249,8.112 -7.752,11.186c-6.45,5.663 -14.154,9.169 -20.883,14.259c-2.435,1.842 -5.118,4.398 -4.285,7.73c1.285,5.139 7.736,2.972 10.888,1.362c8.186,-4.183 14.663,-14.877 24.733,-14.057c7.377,0.6 14.662,6.446 18.278,12.685c0.928,1.601 2.754,11.788 4.849,11.197c2.101,-0.594 3.394,-4.858 3.987,-6.625c2.141,-6.376 3.649,-12.929 6.114,-19.203"
      style="fill:none;stroke:#fff;stroke-width:3.97px;"
    />
    <path
      d="M441.499,309.13c0,-0.889 -0.175,1.77 -0.192,2.658c-0.039,2.056 -0.042,4.111 -0.042,6.167c0,5.541 0.122,11.079 0.17,16.62c0.13,14.985 1.429,29.917 1.818,44.892c0.129,4.977 1.251,13.207 -5.125,14.164c-15.569,2.335 -12.725,-8.99 -12.685,-21.458c0.059,-18.723 -0.723,-35.485 9.272,-51.751"
      style="fill:none;stroke:#fff;stroke-width:3.97px;"
    />
    <path
      d="M418.235,347.78c-0.196,0 -0.091,-1.448 -0.083,-1.566c0.112,-1.586 0.39,-3.165 0.703,-4.721c0.963,-4.797 2.4,-9.383 5.001,-13.552c0.813,-1.303 3.285,-3.433 1.268,-4.686c-4.059,-2.522 -8.169,-1.198 -9.514,3.334c-1.488,5.012 -1.101,10.775 1.024,15.535"
      style="fill:none;stroke:#fff;stroke-width:3.97px;"
    />
    <path
      d="M428.655,305.654c-0.294,-0.294 2.188,-1.67 2.543,-1.881c2.573,-1.533 5.243,-2.997 7.996,-4.18c0.409,-0.176 2.701,-0.725 2.823,-1.251c0.002,-0.01 -2.729,-0.43 -2.93,-0.464c-2.058,-0.349 -3.901,-0.825 -5.252,-2.554c-1.885,-2.415 -2.199,-5.467 -3.126,-8.295c-0.39,-1.192 -1.148,-3.109 -2.518,-3.477c-1.367,-0.367 -2.692,0.967 -3.638,1.745c-2.425,1.993 -4.866,3.902 -7.586,5.484c-4.146,2.411 -8.763,3.939 -13.069,6.019c-2.884,1.393 -5.493,3.491 -8.39,4.77c-2.163,0.954 -4.682,0.38 -6.752,1.822c-3.322,2.313 -2.631,6.608 0.089,9.008c4.205,3.71 8.512,-0.359 11.7,-3.078c5.314,-4.531 11.025,-8.237 16.94,-11.902c1.188,-0.737 4.777,-4.354 6.252,-4.127c1.004,0.155 0.619,5.116 0.619,5.74c0,4.165 -0.303,11.816 3.478,14.689"
      style="fill:none;stroke:#fff;stroke-width:3.97px;"
    />
    <path
      d="M420.457,262.462c1.556,0 -2.75,-1.46 -4.131,-2.179c-2.773,-1.441 -5.51,-2.951 -8.169,-4.595c-8.119,-5.022 -16.217,-10.03 -24.412,-14.929c-17.999,-10.76 -35.746,-22.014 -53.647,-32.94c-2.623,-1.601 -14.659,-10.846 -16.921,-10.944c-1.585,-0.069 -1.856,12.533 -1.952,15.128c-0.571,15.409 0.65,30.864 0.65,46.288"
      style="fill:none;stroke:#fff;stroke-width:3.97px;"
    />
    <path
      d="M749.159,246.41c0,-0.07 -0.257,2.474 -0.446,2.894c-0.835,1.866 -2.107,3.571 -3.322,5.202c-4.195,5.63 -9.67,10.266 -14.18,15.656c-0.955,1.14 -3.296,5.44 -5.071,3.768c-1.208,-1.138 -5.949,-6.939 -5.581,-8.533c0.349,-1.516 2.743,-2.973 3.825,-3.892c2.997,-2.545 5.994,-5.098 8.921,-7.725c4.962,-4.454 11.045,-11.774 17.659,-13.908"
      style="fill:none;stroke:#fff;stroke-width:3.97px;"
    />
    <path
      d="M738.853,296.082c0,-0.208 -4.775,3.377 -5.07,3.669c-1.879,1.861 -9.773,12.454 -5.359,14.923c1.817,1.016 4.157,-0.684 5.433,-1.847c3.636,-3.314 6.249,-7.543 8.5,-11.872c0.278,-0.534 3.136,-5.72 2.061,-6.15"
      style="fill:none;stroke:#fff;stroke-width:3.97px;"
    />
    <path
      d="M709.792,339.778c2.415,-4.832 14.86,-9.598 12.102,-16.811c-0.516,-1.35 -2.308,-0.729 -3.273,-0.379c-3.272,1.19 -6.112,3.369 -8.764,5.573c-11.648,9.686 -21.901,20.374 -35.022,28.246"
      style="fill:none;stroke:#fff;stroke-width:3.97px;"
    />
    <path
      d="M701.135,343.9c-1.004,2.009 -4.028,3.9 -5.648,5.359c-5.085,4.58 -10.386,8.777 -16.579,11.765c-3.12,1.505 -7.819,2.19 -10.157,4.946c-2.324,2.739 -3.336,7.061 -5.211,10.174c-0.387,0.643 -1.446,3.134 -2.3,3.298c-0.674,0.129 -2.067,-2.1 -2.415,-2.507c-1.693,-1.979 -6.052,-6.115 -6.126,-8.871c-0.064,-2.39 2.404,-4.576 3.768,-6.265c3.301,-4.093 6.406,-8.418 9.168,-12.895c9.164,-14.858 18.441,-29.928 27.33,-44.94c4.27,-7.211 8.466,-18.014 15.178,-23.447"
      style="fill:none;stroke:#fff;stroke-width:3.97px;"
    />
    <path
      d="M789.762,327.823c0.33,-0.99 -0.525,1.264 -0.585,1.451c-0.439,1.361 -0.87,2.741 -1.097,4.156c-0.544,3.399 1.01,9.782 5.928,8.582c2.502,-0.61 3.241,-8.545 3.776,-10.528c0.238,-0.883 1.094,-2.605 0.552,-3.496c-1.058,-1.738 -6.011,-0.423 -7.494,-0.14"
      style="fill:none;stroke:#fff;stroke-width:3.97px;"
    />
    <path
      d="M774.098,339.159c-0.915,0.686 -1.54,2.753 -1.839,3.776c-0.325,1.114 -0.528,2.429 -0.395,3.587c1.054,9.2 15.03,2.622 7.354,-2.861c-1.15,-0.821 -2.399,-1.488 -3.661,-2.119"
      style="fill:none;stroke:#fff;stroke-width:3.97px;"
    />
    <path
      d="M790.999,355.854c0,-0.584 -0.585,1.014 -0.816,1.55c-0.475,1.104 -0.905,2.228 -1.245,3.381c-0.71,2.404 -2.644,12.344 2.226,12.506c3.708,0.124 4.626,-11.713 4.897,-14.147c0.173,-1.556 1.08,-4.194 -1.072,-4.254"
      style="fill:none;stroke:#fff;stroke-width:3.97px;"
    />
    <path
      d="M733.494,287.632c0,-0.804 1.613,-2.437 2.028,-3.05c1.941,-2.866 3.952,-5.683 5.961,-8.5c6.563,-9.206 12.773,-18.546 17.585,-28.806c2.671,-5.695 5.506,-12.434 5.343,-18.864c-0.205,-8.05 -6.588,-5.657 -10.108,-0.783"
      style="fill:none;stroke:#fff;stroke-width:3.97px;"
    />
    <path
      d="M733.445,288.574c-0.77,0 -0.884,2.835 -0.66,3.231c1.147,2.029 4.351,1.823 6.163,1.033c4.868,-2.126 7.924,-9.36 10.546,-13.514c6.16,-9.757 13.473,-18.782 19.195,-28.817c4.325,-7.585 7.735,-16.25 10.323,-24.594c0.667,-2.152 0.991,-4.363 0.878,-6.616c-0.137,-2.721 -1.062,-7.588 -3.92,-8.877c-2.531,-1.142 -5.56,0.564 -7.775,1.687c-5.545,2.812 -13.821,7.895 -12.825,15.2"
      style="fill:none;stroke:#fff;stroke-width:3.97px;"
    />
    <path
      d="M675.441,354.393c0,-0.92 1.963,-2.911 2.438,-3.631c2.252,-3.42 4.462,-6.867 6.674,-10.312c8.724,-13.585 17.938,-26.852 26.603,-40.475c2.921,-4.593 6.371,-9.134 8.678,-14.083c0.66,-1.416 1.849,-4.235 0.319,-5.539c-2.086,-1.778 -6.506,-0.544 -8.876,-0.236"
      style="fill:none;stroke:#fff;stroke-width:3.97px;"
    />
    <path
      d="M641.143,352.319c-0.296,-0.296 2.757,3.871 3.471,4.868c2.474,3.455 4.888,7.11 7.811,10.21"
      style="fill:none;stroke:#fff;stroke-width:3.97px;"
    />
    <path
      d="M676.077,451.594c0,-0.228 -0.56,2.678 -0.619,3.165c-0.259,2.126 -0.275,4.409 0.19,6.51c0.965,4.359 6.61,5.388 10.145,3.007c2.245,-1.512 3.343,-11.725 1.116,-13.31c-2.385,-1.696 -8.571,1.177 -10.765,2.314"
      style="fill:none;stroke:#fff;stroke-width:3.97px;"
    />
    <path
      d="M583.132,441.68c0,-0.817 -1.175,1.162 -1.884,1.57c-1.444,0.831 -3.036,1.373 -4.643,1.793c-3.578,0.934 -13.338,-0.676 -13.004,5.461c0.2,3.674 4.692,4.911 7.427,3.114c2.829,-1.857 4.04,-5.625 3.95,-8.873"
      style="fill:none;stroke:#fff;stroke-width:3.97px;"
    />
    <path
      d="M567.228,476.586c-0.573,-0.286 2.487,-3.337 3.313,-4.122c2.095,-1.991 7.16,-8.031 10.525,-4.924c2.287,2.11 1.063,5.748 -1.421,6.989c-2.701,1.351 -6.007,0.485 -8.179,-1.454"
      style="fill:none;stroke:#fff;stroke-width:3.97px;"
    />
    <path
      d="M773.961,460.577c0.087,-0.431 -0.45,1.132 -0.502,1.291c-0.378,1.172 -0.75,2.347 -1.136,3.517c-1.023,3.098 -2.16,6.161 -2.847,9.358c-0.253,1.182 -0.563,3.231 1.009,3.635c1.999,0.514 4.845,-1.36 6.568,-2.176c1.725,-0.816 3.38,-1.763 5.125,-2.539c0.632,-0.281 1.904,-0.317 2.391,-0.804c2.071,-2.07 2.38,-7.267 3.077,-9.937c0.538,-2.064 1.101,-4.123 1.904,-6.102c0.261,-0.642 0.537,-1.277 0.84,-1.9c0.131,-0.27 0.674,-0.719 0.389,-0.814c-0.637,-0.212 -3.596,1.759 -4.203,2.038c-3.915,1.795 -8.063,3.935 -12.359,4.623"
      style="fill:none;stroke:#fff;stroke-width:3.97px;"
    />
    <path
      d="M895.427,417.09c-0.453,-0.453 0.401,1.215 0.619,1.817c0.375,1.031 0.75,2.061 1.128,3.091c1.064,2.895 2.108,5.855 3.391,8.66c0.345,0.756 0.842,2.401 1.935,2.34c1.34,-0.076 2.37,-1.957 3.042,-2.89c2.168,-3.008 3.788,-6.405 6.168,-9.266c1.137,-1.365 2.491,-2.255 4.24,-2.596c0.777,-0.152 2.975,-0.557 2.374,-0.042c-0.607,0.52 -4.632,-0.545 -5.409,-0.606c-5.137,-0.405 -10.299,-0.684 -15.372,-1.65"
      style="fill:none;stroke:#fff;stroke-width:3.97px;"
    />
    <path
      d="M924.492,370.62c-3.583,6.271 -7.092,11.255 -0.912,17.189c0.878,0.842 1.735,1.887 2.91,2.318c3.402,1.247 5.885,-5.673 7.408,-7.797c0.693,-0.967 1.427,-1.92 2.29,-2.743c0.358,-0.342 1.391,-0.958 1.337,-0.94c-2.911,0.97 -7.566,-5.092 -9.357,-6.649c-1.182,-1.027 -2.88,-2.059 -4.295,-0.807"
      style="fill:none;stroke:#fff;stroke-width:3.97px;"
    />
    <path
      d="M550.813,358.167c0,-1.094 -0.513,2.127 -0.785,3.187c-0.636,2.471 -1.269,4.93 -2.052,7.362c-1.191,3.701 -14.178,27.842 -19.673,23.864c-3.174,-2.299 0.941,-12.043 1.863,-14.624c4.83,-13.524 3.247,-14.895 15.235,-23.136c2.58,-1.774 4.399,-4.797 7.202,-6.198"
      style="fill:none;stroke:#fff;stroke-width:3.97px;"
    />
    <path
      d="M389.397,434.06c-0.459,0.918 0.457,3.986 0.536,5.032c0.554,7.347 1.047,8.554 8.322,9.575c0.512,0.072 5.461,1.397 5.767,1.023c0.552,-0.675 -1.388,-7.383 -1.511,-8.398c-0.296,-2.448 0.191,-10.432 -0.277,-10.828c-0.525,-0.444 -2.967,0.659 -3.501,0.813c-3.25,0.937 -6.445,1.844 -9.785,2.401"
      style="fill:none;stroke:#fff;stroke-width:3.97px;"
    />
    <path
      d="M854.379,253.752c0,-0.941 -0.118,1.89 -0.359,2.799c-0.49,1.844 -1.453,3.771 -1.523,5.696c-0.142,3.886 4.848,5.076 8.012,4.26c1.965,-0.508 4.292,-8.161 3.17,-9.709c-1.221,-1.684 -6.012,-1.191 -7.839,-1.35"
      style="fill:none;stroke:#fff;stroke-width:3.97px;"
    />
    <path
      d="M886.785,297.626c0,4.499 -7.066,11.013 -4.871,15.472c0.887,1.802 5.392,0.238 6.704,-0.223c4.673,-1.643 6.796,-6.638 7.703,-11.105c0.161,-0.793 1.19,-3.416 0.636,-4.136c-0.725,-0.942 -4.765,0.608 -5.672,0.834c-1.975,0.49 -3.932,1.06 -5.895,1.593"
      style="fill:none;stroke:#fff;stroke-width:3.97px;"
    />
    <path
      d="M223.307,58.005c0,-0.781 0.166,1.168 0.207,1.419c0.198,1.214 0.378,2.432 0.619,3.639"
      style="fill:none;stroke:#fff;stroke-width:3.97px;"
    />
    <path
      d="M225.243,69.832c0,-0.768 0.404,1.482 0.619,2.219c0.399,1.371 0.855,2.764 1.135,4.163"
      style="fill:none;stroke:#fff;stroke-width:3.97px;"
    />
    <path
      d="M214.275,25.749c0.763,0 -1.518,0.156 -2.279,0.206c-1.585,0.106 -3.171,0.187 -4.757,0.284c-4.907,0.302 -9.813,0.706 -14.708,1.161c-14.852,1.382 -29.927,2.643 -44.66,5.032"
      style="fill:none;stroke:#fff;stroke-width:3.97px;"
    />
    <path
      d="M148.258,36.931c1.455,0 4.686,4.572 5.574,5.488c5.011,5.163 10.198,10.1 15.629,14.82c23.05,20.03 46.51,39.548 68.495,60.788"
      style="fill:none;stroke:#fff;stroke-width:3.97px;"
    />
    <path
      d="M69.625,7.02c-0.097,-0.048 0.485,0.574 0.566,0.662c0.454,0.503 0.922,0.992 1.391,1.481c1.325,1.381 2.621,2.789 3.927,4.188c3.788,4.052 7.664,8.022 11.538,11.991c11.754,12.042 23.301,24.271 36.077,35.222"
      style="fill:none;stroke:#fff;stroke-width:3.97px;"
    />
    <path
      d="M88.78,86.986c-0.695,0 2.579,-4.807 2.752,-5.006c1.822,-2.091 3.845,-3.601 6.345,-4.791c0.545,-0.259 3.075,-0.679 3.259,-1.346c0.203,-0.738 -0.874,-1.751 -1.31,-2.195c-1.43,-1.454 -3.342,-3.055 -5.445,-3.273c-4.024,-0.416 -11.358,4.068 -10.354,8.733c0.571,2.655 3.194,4.163 5.274,5.55"
      style="fill:none;stroke:#fff;stroke-width:3.97px;"
    />
    <path
      d="M110.538,165.929c0,0.169 1.883,-1.539 2.194,-1.808c1.648,-1.417 3.368,-2.757 5.089,-4.084c1.336,-1.03 4.919,-2.576 5.683,-4.135c1.226,-2.507 -3.378,-10.408 -5.631,-11.359c-3.81,-1.609 -7.447,3.026 -7.751,6.337c-0.403,4.378 3.009,8.602 5.504,11.865"
      style="fill:none;stroke:#fff;stroke-width:3.97px;"
    />
    <path
      d="M155.364,175.283c0,-0.696 3.007,-3.034 3.476,-3.509c3.632,-3.681 7.341,-7.374 11.332,-10.665c1.888,-1.558 5.716,-3.505 3.581,-6.32c-4.511,-5.945 -12.21,-3.412 -15.559,2.418c-2.684,4.672 -1.475,9.755 1.98,13.573"
      style="fill:none;stroke:#fff;stroke-width:3.97px;"
    />
    <path
      d="M176.766,161.233c0,0.14 -1.591,1.188 -1.758,1.353c-1.44,1.415 -2.587,3.223 -3.536,4.992c-2.844,5.308 -3.392,11.396 -6.626,16.586c-2.62,4.205 -9.859,9.08 -8.508,14.69c0.687,2.853 4.042,2.821 6.26,1.81c5.94,-2.705 10.781,-7.784 16.514,-10.893c1.636,-0.888 3.374,-1.85 5.175,-2.353c0.261,-0.073 2.275,-0.014 2.314,-0.117c0.589,-1.571 -1.77,-5.341 -2.346,-6.712c-1.756,-4.175 -3.383,-8.404 -5.026,-12.625c-0.951,-2.445 -1.619,-5.35 -3.711,-7.104"
      style="fill:none;stroke:#fff;stroke-width:3.97px;"
    />
    <path
      d="M131.918,303.986c-2.189,3.284 -1.974,9.965 -2.392,13.75c-0.117,1.054 0.421,3.817 -0.244,4.704c-0.847,1.13 -3.514,1.609 -4.748,2.016c-4.04,1.33 -8.967,3.623 -13.285,3.293c-2.02,-0.154 -6.18,-2.386 -5.265,-5.051c1.104,-3.217 5.571,-5.635 8.182,-7.421c5.843,-3.998 12.644,-7.831 17.789,-12.753"
      style="fill:none;stroke:#fff;stroke-width:3.97px;"
    />
    <path
      d="M158.969,363.776c-0.381,0.19 0.703,-0.481 1.048,-0.731c0.677,-0.492 1.356,-0.979 2.035,-1.469c2.12,-1.531 4.19,-3.133 6.297,-4.683c5.754,-4.236 11.487,-8.485 17.166,-12.822c1.111,-0.848 4.259,-4.286 5.883,-2.917c3.556,2.997 2.296,12.175 1.855,16.104c-0.619,5.524 -2.297,10.766 -2.621,16.367c-0.56,9.712 0.868,19.184 2.111,28.781c0.583,4.498 1.064,9.01 1.503,13.525c0.094,0.962 0.886,4 -0.103,4.758c-2.328,1.787 -5.666,-6.339 -6.097,-7.379c-3.913,-9.458 -0.369,-19.088 -2.655,-28.56c-1.072,-4.44 -6.756,-3.756 -8.773,-7.47c-1.264,-2.327 0.059,-9.753 -2.566,-10.628c-4.659,-1.553 -11.539,2.563 -15.359,-2.048"
      style="fill:none;stroke:#fff;stroke-width:3.97px;"
    />
    <path
      d="M160.52,406.709c-0.179,0.18 0.412,-3.573 0.566,-4c0.775,-2.147 2.194,-5.715 4.311,-6.869c2.476,-1.351 7.47,3.926 9.214,5.262c0.81,0.621 2.345,1.279 2.538,2.407c0.247,1.443 -3.151,1.992 -4.042,2.124c-4.032,0.599 -8.895,-0.033 -12.331,-2.324"
      style="fill:none;stroke:#fff;stroke-width:3.97px;"
    />
    <path
      d="M134.386,434.517c0.407,0.408 -0.996,-0.629 -1.559,-0.752c-1.148,-0.251 -2.327,-0.266 -3.497,-0.31c-3.157,-0.122 -12.82,0.989 -11.194,-4.615c1.21,-4.166 7.093,-6.466 9.187,-1.744c1.69,3.809 -0.517,7.816 -0.014,11.745"
      style="fill:none;stroke:#fff;stroke-width:3.97px;"
    />
    <path
      d="M143.524,448.31c-0.218,-0.217 -0.817,2.018 -0.841,2.159c-0.395,2.323 -0.245,4.741 -0.145,7.083c0.341,8.005 1.895,13.453 -3.214,20.319c-0.324,0.435 -3.824,5.417 -4.221,5.11c-1.129,-0.872 -1.724,-6.853 -2.193,-8.276c-0.963,-2.919 -3.166,-5.882 -3.435,-8.966c-0.998,-11.438 11.337,-13.704 18.104,-19.001"
      style="fill:none;stroke:#fff;stroke-width:3.97px;"
    />
    <path
      d="M80.754,505.862c0,0.322 -2.471,-0.303 -2.621,-0.338c-2.728,-0.624 -5.958,-2.117 -8.773,-1.848c-4.02,0.384 -6.434,6.641 -4.648,9.952c1.331,2.47 3.947,2.229 5.931,0.718c3.55,-2.704 5.401,-7.482 9.139,-9.842"
      style="fill:none;stroke:#fff;stroke-width:3.97px;"
    />
    <path
      d="M48.541,454.685c-5.823,0 -12.509,2.118 -18.205,3.23c-9.406,1.837 -19.278,3.486 -28.349,6.666"
      style="fill:none;stroke:#fff;stroke-width:3.97px;"
    />
    <path
      d="M178.15,481.312c-0.987,0 1.002,-4.716 1.157,-5.051c2.156,-4.655 7.14,-7.331 9.169,-11.701"
      style="fill:none;stroke:#fff;stroke-width:3.97px;"
    />
    <path
      d="M179.561,473.024c0,0.144 -2.375,-2.165 -2.554,-2.49c-1.127,-2.054 -1.059,-4.603 -0.373,-6.786c1.889,-6.011 7.836,-10.409 11.68,-15.179c0.674,-0.836 2.379,-4.726 3.308,-5.114c0.183,-0.076 0.346,4.053 0.339,4.296c-0.141,4.55 -2.281,10.149 -1.249,14.622"
      style="fill:none;stroke:#fff;stroke-width:3.97px;"
    />
    <path
      d="M193.315,460.327c0,-1.728 2.614,-4.534 3.52,-5.939c3.27,-5.069 6.222,-10.393 10.446,-14.763"
      style="fill:none;stroke:#fff;stroke-width:3.97px;"
    />
    <path
      d="M204.248,447.631c0,-0.02 0.867,1.488 0.959,1.763c0.438,1.301 0.824,2.624 1.143,3.958c1.026,4.285 1.45,8.734 1.242,13.133c-0.593,12.523 -5.357,29.536 -18.156,34.951c-1.008,0.426 -2.073,0.756 -3.153,0.938c-4.736,0.795 -4.244,-1.513 -3.132,-6.102c0.921,-3.798 1.932,-7.548 2.292,-11.455c0.285,-3.08 0.342,-6.237 -0.056,-9.31c-0.299,-2.31 -1.256,-4.944 -0.515,-7.251"
      style="fill:none;stroke:#fff;stroke-width:3.97px;"
    />
    <path
      d="M162.191,543.648c-0.064,0.064 -0.106,-0.912 -0.105,-0.981c0.009,-0.725 0.057,-1.448 0.091,-2.172c0.1,-2.085 0.123,-4.172 0.219,-6.257c0.333,-7.257 1.921,-14.361 2.328,-21.598c0.06,-1.068 0.599,-5.877 -1.39,-5.833c-2.213,0.049 -4.545,2.292 -6.158,3.59c-4.167,3.354 -7.827,7.445 -12.287,10.418c-4.29,2.86 -9.154,4.768 -13.5,7.526c-15.008,9.524 -29.595,19.975 -44.48,29.738c-5.972,3.917 -11.223,8.792 -16.901,13.099c-0.836,0.634 -5.165,3.522 -5.071,4.74c0.056,0.722 2.772,0.532 3.139,0.522c3.648,-0.1 7.288,-0.375 10.94,-0.325c8.735,0.119 17.223,2.026 25.936,2.716c14.127,1.119 28.27,1.928 42.392,3.04c3.304,0.26 6.525,0.815 9.712,1.721c0.52,0.148 2.969,1.326 3.45,0.987c1.159,-0.816 -0.271,-7.347 -0.346,-8.492c-0.555,-8.442 1.873,-16.547 1.679,-24.899"
      style="fill:none;stroke:#fff;stroke-width:3.97px;"
    />
    <path
      d="M17.125,588.014c-2.758,0 -6.05,3.764 -8.75,3.427c-0.068,-0.009 0.11,-0.084 0.171,-0.115c1.365,-0.682 3.974,-1.984 5.404,-0.948c1.725,1.251 2.009,6.271 2.319,8.317c0.5,3.301 -8.003,7.312 -9.824,9.538"
      style="fill:none;stroke:#fff;stroke-width:3.97px;"
    />
    <path
      d="M80.811,649.986c0.123,0 -0.021,0.162 -0.057,0.228c-0.724,1.327 -1.505,2.623 -2.319,3.896c-1.778,2.781 -3.571,5.55 -5.426,8.282c-5.623,8.277 -11.341,16.488 -16.93,24.788c-16.667,24.756 -35.501,48.032 -52.045,72.847"
      style="fill:none;stroke:#fff;stroke-width:3.97px;"
    />
    <path
      d="M136.622,703.773c0,0.404 0.683,-0.432 1.002,-0.678c0.762,-0.589 1.488,-1.226 2.217,-1.856c2.19,-1.891 4.34,-3.878 6.302,-6.007c0.649,-0.704 1.51,-2.444 2.534,-1.584c2.682,2.25 4.652,5.626 6.585,8.491c0.841,1.246 2.012,2.607 1.482,4.214c-0.913,2.767 -4.909,4.699 -7.105,6.257c-1.316,0.933 -3.795,3.637 -5.516,3.637c-1.278,0 -1.838,-1.951 -2.143,-2.874c-0.258,-0.777 -0.477,-1.565 -0.696,-2.353c-0.596,-2.14 -2.081,-11.28 -6.319,-7.648"
      style="fill:none;stroke:#fff;stroke-width:3.97px;"
    />
    <path
      d="M38.236,771.847c0,0.642 3.2,2.189 3.644,2.468c3.062,1.923 6.222,3.733 9.143,5.869c0.816,0.597 2.628,1.558 2.816,2.669c0.51,3.002 -5.298,5.365 -7.307,6.453c-0.776,0.421 -1.986,1.566 -2.938,1.311c-1.659,-0.444 -3.06,-2.538 -4.162,-3.731c-1.861,-2.015 -4.44,-3.487 -6.104,-5.64c-0.532,-0.689 0.869,-2.065 1.23,-2.582c1.162,-1.659 4.47,-5.308 3.611,-7.543"
      style="fill:none;stroke:#fff;stroke-width:3.97px;"
    />
    <path
      d="M18.908,802.268c0,-0.163 -1.485,1.023 -1.593,1.116c-0.915,0.782 -1.816,1.581 -2.71,2.387c-2.622,2.363 -5.185,4.786 -7.778,7.179"
      style="fill:none;stroke:#fff;stroke-width:3.97px;"
    />
    <path
      d="M148.91,798.15c0,0.076 -2.239,-0.729 -2.481,-0.82c-1.45,-0.546 -3.711,-1.18 -4.491,-2.649c-0.866,-1.631 0.376,-4.051 1.116,-5.485c2.024,-3.923 4.651,-8.045 9.735,-6.401c1.883,0.61 1.725,2.802 0.968,4.283c-1.963,3.84 -5.66,6.759 -7.2,10.803"
      style="fill:none;stroke:#fff;stroke-width:3.97px;"
    />
    <path
      d="M206.053,829.075c0.589,-0.589 -1.183,1.193 -1.62,1.903c-0.934,1.517 -1.664,3.305 -1.788,5.095c-0.305,4.381 3.765,8.628 7.657,10.031c2.646,0.953 5.024,-1.242 5.197,-3.859c0.193,-2.923 -1.678,-5.613 -3.106,-7.993c-0.216,-0.361 -1.861,-3.812 -2.266,-3.772c-0.123,0.012 1.732,2.797 1.862,2.985c1.372,1.974 2.712,4.33 3.463,6.622c1.734,5.296 -2.753,10.053 -3.261,15.133"
      style="fill:none;stroke:#fff;stroke-width:3.97px;"
    />
    <path
      d="M253.655,836.014c0,0.348 0.21,-0.662 0.306,-0.996c0.169,-0.587 0.333,-1.177 0.476,-1.771c0.492,-2.045 0.832,-4.14 0.989,-6.238c0.438,-5.827 -1.419,-13.325 3.015,-18.087"
      style="fill:none;stroke:#fff;stroke-width:3.97px;"
    />
    <path
      d="M260.98,808.505c-0.496,0.496 -3.3,0.033 -3.887,-0.007c-3.288,-0.219 -8.175,-0.732 -10.099,2.716c-2.865,5.133 -0.669,18.315 6.7,18.315"
      style="fill:none;stroke:#fff;stroke-width:3.97px;"
    />
    <path
      d="M265.212,813.877c0,-0.534 -0.4,0.998 -0.494,1.523c-0.18,1.003 -0.222,2.05 -0.222,3.067c0,3.129 0.172,6.391 0.86,9.447c1.082,4.811 2.074,9.511 1.354,14.462c-0.152,1.045 -0.377,2.073 -0.625,3.099c-0.723,2.987 -4.61,14.207 2.533,11.407c1.207,-0.473 2.366,-1.07 3.542,-1.615"
      style="fill:none;stroke:#fff;stroke-width:3.97px;"
    />
    <path
      d="M266.189,813.226c-0.428,-0.428 0.765,0.949 1.237,1.328c1.065,0.854 2.301,1.501 3.464,2.207c2.887,1.754 8.999,3.55 10.079,7.188c0.846,2.848 0.006,6.124 -0.534,8.953c-1.487,7.8 -5.412,14.78 -7.11,22.47"
      style="fill:none;stroke:#fff;stroke-width:3.97px;"
    />
    <path
      d="M198,767.772c0,-0.689 1.336,0.346 2.008,0.502c1.512,0.352 3.021,0.573 4.563,0.745c2.636,0.294 5.272,0.446 7.925,0.462c1.036,0.007 2.751,-0.356 3.604,0.435c1.662,1.541 -1.161,6.798 -1.619,8.46c-0.171,0.624 -0.128,1.88 -0.575,2.369c-0.436,0.478 -1.548,-0.117 -1.997,-0.293c-1.964,-0.769 -3.883,-1.712 -5.922,-2.273c-1.774,-0.488 -3.647,-0.761 -5.488,-0.643c-1.311,0.084 -2.963,0.725 -4.247,0.316c-4.514,-1.439 0.222,-8.437 2.092,-9.995"
      style="fill:none;stroke:#fff;stroke-width:3.97px;"
    />
    <path
      d="M204.91,760.299c-0.681,-0.681 -3.861,-0.41 -4.693,-0.474c-3.891,-0.297 -7.71,-0.328 -11.608,-0.248c-1.291,0.027 -3.832,0.351 -4.93,-0.541c-0.971,-0.79 -0.926,-2.718 -0.992,-3.836c-0.072,-1.2 -0.597,-4.07 0.265,-5.088c0.37,-0.438 1.617,-0.366 2.137,-0.445c2.034,-0.31 4.091,-0.591 6.103,-1.021c0.767,-0.164 4.467,-1.565 5.116,-1.218c0.518,0.276 0.706,2.774 0.84,3.305c0.784,3.093 1.472,6.321 3.221,9.041"
      style="fill:none;stroke:#fff;stroke-width:3.97px;"
    />
    <path
      d="M226.907,730.264c0.139,-0.417 -0.102,0.854 -0.113,0.964c-0.063,0.667 -0.044,1.366 0.017,2.031c0.214,2.336 0.907,4.614 3.074,5.81c4.367,2.408 13.48,1.434 15.077,-4.552c0.111,-0.418 -1.322,-0.48 -1.534,-0.508c-1.929,-0.256 -3.84,-0.647 -5.737,-1.077c-2.799,-0.636 -7.733,-4.053 -10.682,-2.431"
      style="fill:none;stroke:#fff;stroke-width:3.97px;"
    />
    <path
      d="M300.424,673.942c-6.351,0 -10.694,-6.03 -17.732,-4.107c-3.759,1.027 -5.943,4.312 -6.404,8.051c-0.101,0.821 -0.493,3.054 0.432,3.588c1.112,0.64 3.634,-0.689 4.64,-1.11c3.174,-1.329 11.81,-4.869 11.001,-9.518"
      style="fill:none;stroke:#fff;stroke-width:3.97px;"
    />
    <path
      d="M283.567,631.2c0,0.263 -3.393,-1.102 -3.576,-1.182c-2.261,-0.99 -4.443,-2.089 -6.801,-2.838c-3.99,-1.268 -8.351,-1.689 -12.524,-1.856c-0.863,-0.034 -2.302,-1.206 -3.029,-0.921c-2,0.786 -3.423,5.262 -3.576,7.114c-0.38,4.585 3.328,6.397 7.366,5.927c7.012,-0.815 12.947,-3.917 18.986,-7.348"
      style="fill:none;stroke:#fff;stroke-width:3.97px;"
    />
    <path
      d="M298.994,618.271c0.306,-0.152 -0.665,0.195 -0.891,0.222c-0.764,0.093 -1.533,0.134 -2.303,0.148c-2.175,0.039 -4.366,-0.022 -6.54,-0.091c-4.129,-0.133 -8.36,-0.73 -12.485,-0.322c-3.217,0.318 -6.302,1.762 -9.491,1.964c-1.536,0.098 -3.162,-0.073 -4.636,-0.521c-0.19,-0.058 -1.34,-0.266 -1.352,-0.552c-0.028,-0.693 0.926,-1.764 1.287,-2.282c1.474,-2.118 3.227,-4.045 4.845,-6.053c3.063,-3.802 6.829,-11.564 12.889,-9.408c2.331,0.829 4.37,2.55 6.566,3.68c4.43,2.28 9.524,4.514 13.128,8.053c1.811,1.777 2.544,8.301 -1.582,7.122"
      style="fill:none;stroke:#fff;stroke-width:3.97px;"
    />
    <path
      d="M283.663,559.746c-0.463,0 0.808,-0.455 1.228,-0.652c0.98,-0.461 1.983,-0.87 2.985,-1.281c2.461,-1.009 5.821,-3.217 8.559,-3.217c1.666,0 3.717,2.746 4.938,3.629c4.634,3.353 12.114,6.684 9.787,13.612c-0.553,1.648 -1.782,2.671 -3.539,2.059c-1.612,-0.56 -2.9,-1.919 -4.27,-2.887c-2.353,-1.663 -4.894,-3.102 -7.564,-4.192c-3.282,-1.339 -9.158,-1.442 -11.275,-4.677"
      style="fill:none;stroke:#fff;stroke-width:3.97px;"
    />
    <path
      d="M388.849,572.957c0.389,0 1.057,-0.845 1.326,-1.081c0.721,-0.632 1.761,-1.313 1.925,-2.333c0.198,-1.225 -0.622,-3.054 0.195,-4.123c0.821,-1.073 2.949,-0.528 4.076,-0.602c1.759,-0.117 3.096,-1.221 4.119,-2.584"
      style="fill:none;stroke:#fff;stroke-width:3.97px;"
    />
    <path
      d="M372.637,477.199c0,-0.447 -1.198,1.516 -1.261,1.677c-0.532,1.375 -0.899,2.834 -1.153,4.285c-0.34,1.941 -0.823,15.798 1.085,16.452c1.633,0.56 4.679,-3.467 5.536,-4.44c4.426,-5.025 5.257,-11.452 -0.834,-15.803"
      style="fill:none;stroke:#fff;stroke-width:3.97px;"
    />
    <path
      d="M332.889,490.287c-0.332,0 3.716,-3.893 3.994,-4.101c3.005,-2.254 2.824,-4.969 4.353,-8.027"
      style="fill:none;stroke:#fff;stroke-width:3.97px;"
    />
    <path
      d="M375.06,440.844c0,-0.47 -10.401,4.304 -12.157,5.138c-7.892,3.748 -15.82,7.418 -23.664,11.265c-15.68,7.691 -31.466,15.286 -47.009,23.238c-2.352,1.204 -15.296,6.581 -16.248,8.851c-0.739,1.761 6.923,5.401 7.988,6.215c9.346,7.141 14.028,12.654 24.915,18.875"
      style="fill:none;stroke:#fff;stroke-width:3.97px;"
    />
    <path
      d="M372.732,392.1c0,-0.688 8.099,-6.33 7.935,-6.769c-0.217,-0.579 -4.729,-1.381 -5.412,-1.662c-2.264,-0.931 -4.135,-3.618 -6.49,-4.054c-4.438,-0.822 -0.436,6.485 0.583,7.613c1.11,1.229 2.442,2.293 3.776,3.271"
      style="fill:none;stroke:#fff;stroke-width:3.97px;"
    />
    <path
      d="M317.706,374.917c-3.587,0 -8.321,6.348 -13.381,5.916c-5.35,-0.456 -0.603,-6.345 1.436,-7.673c4.932,-3.212 9.819,-1.342 15.085,-2.471"
      style="fill:none;stroke:#fff;stroke-width:3.97px;"
    />
    <path
      d="M556.984,536.768c0,0.791 0.456,-1.521 0.79,-2.238c0.748,-1.605 1.623,-3.172 2.481,-4.72c2.247,-4.049 10.59,-14.707 0.599,-15.956c-7.002,-0.875 -9.583,9.334 -4.002,12.836c3.831,2.404 9.137,0.279 13.126,-0.547c1.852,-0.383 4.925,-0.707 5.944,1.33c3.285,6.571 -9.595,7.962 -13.126,7.853"
      style="fill:none;stroke:#fff;stroke-width:3.97px;"
    />
    <path
      d="M533.616,537.097c-0.67,0 1.108,-0.757 1.639,-1.165c1.107,-0.851 2.196,-1.725 3.278,-2.607c3.332,-2.717 6.893,-5.474 9.413,-8.998c0.807,-1.128 2.035,-3.217 0.757,-4.476c-2.199,-2.167 -6.126,0.062 -7.951,1.553c-4.646,3.796 -8.504,10.924 -9.565,16.818"
      style="fill:none;stroke:#fff;stroke-width:3.97px;"
    />
    <path
      d="M510.742,566.883c-2.9,2.899 -7.608,2.849 -11.026,0.993c-1.582,-0.859 -3.038,-2.753 -4.93,-2.843c-4.14,-0.197 -10.056,6.581 -9.538,10.565c1.107,8.51 13.933,4.03 17.707,1.152c1.963,-1.497 4.025,-4.098 2.811,-6.662"
      style="fill:none;stroke:#fff;stroke-width:3.97px;"
    />
    <path
      d="M535.326,642.464c-0.53,0 -2.622,3.628 -2.974,4.095c-2.92,3.875 -6.176,7.437 -9.207,11.218c-0.647,0.806 -2.664,2.865 -1.521,3.965c1.225,1.177 4.758,-0.048 6.122,-0.338c5.739,-1.221 11.246,-3.199 17.176,-3.25c5.043,-0.043 9.928,0.677 14.507,2.839c0.543,0.256 4.069,2.26 4.821,1.34c1.093,-1.336 -1.963,-5.682 -2.636,-6.595c-4.524,-6.14 -11.791,-7.378 -18.19,-10.683c-1.421,-0.734 -5.786,-4.782 -7.09,-3.401"
      style="fill:none;stroke:#fff;stroke-width:3.97px;"
    />
    <path
      d="M545.604,671.89c-7.116,0 -13.878,-2.932 -20.871,-4.179c-1.279,-0.228 -5.202,-2.327 -6.279,-1.926c-2.536,0.945 -3.03,5.894 -1.797,7.839c0.929,1.466 2.763,2.27 4.365,2.726c7.262,2.069 12.084,-1.65 17.863,-5.142"
      style="fill:none;stroke:#fff;stroke-width:3.97px;"
    />
    <path
      d="M631.806,596.46c0,8.774 -1.861,17.772 -2.749,26.493c-1.557,15.298 -2.658,30.601 -3.753,45.931"
      style="fill:none;stroke:#fff;stroke-width:3.97px;"
    />
    <path
      d="M649.377,564.817c-1.668,0 -3.846,-1.838 -5.19,-2.632c-10.983,-6.49 -9.507,-20.05 -6.801,-30.686c0.627,-2.466 7.613,-20.057 3.96,-19.506c-5.959,0.899 -9.489,8.604 -11.303,13.418c-4.903,13.013 -7.245,31.938 -0.799,44.928c1.027,2.071 11.168,17.187 13.922,15.288c3.334,-2.299 1.708,-16.635 4.747,-20.687"
      style="fill:none;stroke:#fff;stroke-width:3.97px;"
    />
    <path
      d="M725.016,580.498c5.555,0 10.954,-0.647 16.431,-1.796c4.994,-1.047 12.346,-5.908 17.305,-5.731c1.334,0.048 5.68,4.36 5.079,5.658c-1.317,2.843 -26.269,12.96 -29.727,11.352c-3.208,-1.493 -3.741,-8.127 -4.919,-11.008"
      style="fill:none;stroke:#fff;stroke-width:3.97px;"
    />
    <path
      d="M786.589,642.028c-0.056,0 0.789,2.498 0.857,2.687c0.571,1.584 1.158,3.163 1.737,4.744c1.827,4.988 3.784,9.923 5.818,14.83c6.095,14.698 11.845,29.573 18.453,44.047"
      style="fill:none;stroke:#fff;stroke-width:3.97px;"
    />
    <path
      d="M878.111,627.034c-2.602,0 -5.011,-5.531 -7.408,-5.032c-3.406,0.71 -6.49,4.19 -9.837,5.437c-1.203,0.448 -3.642,0.796 -4.331,2.017c-0.993,1.762 0.661,9.384 3.162,9.083c3.752,-0.452 7.667,-4.4 10.274,-6.824c2.057,-1.911 3.865,-3.926 5.164,-6.426"
      style="fill:none;stroke:#fff;stroke-width:3.97px;"
    />
    <path
      d="M675.555,392.649c-0.318,-0.317 3.201,-0.675 3.931,-0.772c2.5,-0.333 6.854,-0.938 8.745,1.2c4.715,5.33 -1.445,21.033 -3.076,26.788c-0.441,1.555 -1.081,7.834 -3.131,8.138c-2.105,0.312 -4.55,-0.743 -6.58,-1.173c-10.4,-2.2 -5.007,-6.365 -2.4,-16.718c1.64,-6.511 0.654,-13.59 2.469,-19.945"
      style="fill:none;stroke:#fff;stroke-width:3.97px;"
    />
    <path
      d="M612.103,409.547c0,31.505 34.006,20.796 40.968,5.407c0.599,-1.325 -5.408,-0.269 -6.014,-0.235c-4.485,0.254 -9.124,0.058 -13.38,-1.489c-3.838,-1.396 -7.7,-3.851 -9.808,-7.449c-0.522,-0.892 -1.838,-6.904 -2.938,-6.69c-4.14,0.805 -5.634,10.678 -8.979,13.132"
      style="fill:none;stroke:#fff;stroke-width:3.97px;"
    />
    <path
      d="M569.688,390.925c0,-4.008 10.535,-23.116 14.097,-22.842c9.224,0.709 -4.309,17.719 -7.187,19.821c-3.076,2.248 -6.802,4.415 -10.593,5.173"
      style="fill:none;stroke:#fff;stroke-width:3.97px;"
    />
    <path
      d="M466.234,418.685c0,0.449 3.694,-1.614 3.877,-1.724c2.736,-1.658 5.45,-3.39 8.069,-5.228c7.34,-5.153 13.422,-11.617 17.835,-19.449c0.496,-0.879 5.466,-9.45 4,-10.318c-1.765,-1.046 -5.968,-0.204 -7.903,-0.083c-2.824,0.177 -7.555,0.171 -9.849,2.07c-2.52,2.085 -2.575,8.68 -3.324,11.641c-2.095,8.275 -5.022,16.537 -10.36,23.312"
      style="fill:none;stroke:#fff;stroke-width:3.97px;"
    />
    <path
      d="M823.689,521.351c4.73,-9.461 10.22,-18.715 15.003,-28.208c2.843,-5.641 5.729,-11.262 8.554,-16.912c2.097,-4.194 4.648,-15.2 9.9,-17.451c1.452,-0.622 7.478,5.846 7.025,7.477c-2.875,10.349 -19.574,32.565 -25.369,44.704c-0.868,1.819 -6.519,17.62 -7.734,18.393c-0.329,0.21 -1.141,-1.258 -1.26,-1.431c-1.487,-2.162 -5.055,-9.337 -7.881,-9.619"
      style="fill:none;stroke:#fff;stroke-width:3.97px;"
    />
    <path
      d="M835.315,396.221c-2.131,0.426 -7.433,9.127 -5.85,10.916c1.528,1.727 7.748,1.158 9.802,0.869c2.121,-0.298 4.733,-10.432 3.537,-11.785c-1.335,-1.509 -7.743,0.477 -9.509,0.649"
      style="fill:none;stroke:#fff;stroke-width:3.97px;"
    />
    <path
      d="M1185.06,397.319c0,-4.994 13.808,-22.811 18.943,-21.1c2.496,0.833 1.595,4.984 1.145,6.738c-1.426,5.566 -5.192,9.987 -10.353,12.464c-3.513,1.686 -7.311,2.324 -11.139,2.83"
      style="fill:none;stroke:#fff;stroke-width:3.97px;"
    />
  </g>
</svg>
